<svg width="22" height="20" viewBox="0 0 22 20" fill="none" xmlns="http://www.w3.org/2000/svg">
<path fill-rule="evenodd" clip-rule="evenodd" d="M21.7643 1.25094C22.0786 1.55135 22.0786 2.0384 21.7643 2.3388L11.0326 12.5952C10.7182 12.8956 10.2086 12.8956 9.89428 12.5952L6.67477 9.51829C6.36044 9.21788 6.36044 8.73083 6.67477 8.43043C6.98909 8.13003 7.49871 8.13003 7.81304 8.43043L10.4634 10.9634L20.626 1.25094C20.9403 0.95054 21.4499 0.95054 21.7643 1.25094Z" fill="#00AA99"/>
<path fill-rule="evenodd" clip-rule="evenodd" d="M2.95122 1.53846C2.59544 1.53846 2.25423 1.67353 2.00266 1.91397C1.75109 2.1544 1.60976 2.48049 1.60976 2.82051V17.1795C1.60976 17.5195 1.75109 17.8456 2.00266 18.086C2.25424 18.3265 2.59544 18.4615 2.95122 18.4615H17.9756C18.3314 18.4615 18.6726 18.3265 18.9242 18.086C19.1757 17.8456 19.3171 17.5195 19.3171 17.1795V10C19.3171 9.57517 19.6774 9.23077 20.122 9.23077C20.5665 9.23077 20.9268 9.57517 20.9268 10V17.1795C20.9268 17.9275 20.6159 18.6449 20.0624 19.1739C19.509 19.7028 18.7583 20 17.9756 20H2.95122C2.16851 20 1.41785 19.7028 0.864392 19.1739C0.310931 18.6449 0 17.9275 0 17.1795V2.82051C0 2.07247 0.310931 1.35506 0.864392 0.826109C1.41785 0.29716 2.16851 0 2.95122 0H14.7561C15.2006 0 15.561 0.344396 15.561 0.769231C15.561 1.19407 15.2006 1.53846 14.7561 1.53846H2.95122Z" fill="#00AA99"/>
</svg>
