<svg width="339" height="275" viewBox="0 0 339 275" fill="none" xmlns="http://www.w3.org/2000/svg">
<path d="M225.335 228.923C212.627 217.073 212.416 198.74 215.719 182.823C216.275 180.164 216.47 177.296 218.181 175.155C219.893 173.013 223.278 171.9 225.59 173.423C227.504 174.681 228.014 177.131 228.847 179.222C229.958 182.014 231.874 184.447 234.372 186.236C236.001 187.4 238.125 188.284 240.017 187.638C242.644 186.739 243.477 183.599 243.912 180.94C244.723 175.977 245.539 171.016 246.359 166.057C246.795 163.391 247.252 160.674 248.544 158.289C249.835 155.903 252.154 153.855 254.916 153.56C257.679 153.265 260.696 155.234 260.809 157.929C260.723 159.045 260.56 160.154 260.321 161.249C260.208 162.363 260.538 163.671 261.582 164.124C262.625 164.577 263.879 164.03 264.839 163.405C268.165 161.17 270.702 158.023 273.096 154.868C275.491 151.713 277.87 148.465 280.978 145.943C284.085 143.42 288.071 141.667 292.087 142.076C296.102 142.486 299.946 145.497 300.306 149.406C300.666 153.316 297.739 156.758 294.736 159.402C290.278 163.326 285.253 166.612 279.814 169.162C278.838 169.621 277.78 170.11 277.277 171.044C276.369 172.726 277.825 174.76 279.529 175.629C281.488 176.614 283.762 176.757 285.887 177.347C288.011 177.936 290.203 179.208 290.691 181.299C291.359 184.174 288.499 186.667 285.842 188.169C280.522 191.174 274.703 193.279 268.637 194.393C266.476 194.788 264.216 195.075 262.332 196.196C260.448 197.318 259.052 199.545 259.728 201.572C260.403 203.598 262.85 204.604 265.057 204.561C267.264 204.518 269.366 203.699 271.535 203.282C275.588 202.506 280.475 203.527 282.374 207.069C283.627 209.398 283.274 212.308 282.036 214.658C280.692 216.952 278.879 218.963 276.707 220.572C269.411 226.48 260.636 230.784 251.276 232.336C241.916 233.889 233.584 233.4 225.312 228.937" fill="#00AA99"/>
<path d="M223.083 240.766C225.12 233.461 227.885 226.359 231.339 219.559C235.609 211.271 240.371 203.223 245.601 195.456L249.684 189.326C251.028 187.314 252.357 185.316 253.79 183.448C256.548 179.851 259.512 176.403 262.67 173.121C265.672 169.966 268.6 167.085 271.385 164.404C274.169 161.724 276.812 159.287 279.326 157.16C283.268 153.779 287.485 150.703 291.936 147.962C293.513 146.992 294.759 146.273 295.607 145.806L296.583 145.267C296.697 145.198 296.817 145.141 296.943 145.094C296.845 145.175 296.739 145.247 296.628 145.31L295.682 145.885C294.849 146.381 293.625 147.121 292.072 148.12C287.671 150.912 283.498 154.021 279.589 157.419C277.097 159.575 274.477 162.011 271.707 164.692C268.938 167.372 266.01 170.275 263.045 173.423C259.92 176.698 256.983 180.133 254.248 183.714C252.829 185.575 251.508 187.558 250.165 189.571C248.821 191.583 247.47 193.631 246.089 195.701C240.875 203.455 236.113 211.48 231.827 219.739C228.357 226.504 225.557 233.565 223.465 240.831" fill="#444455"/>
<path d="M253.963 183.447C253.897 183.058 253.872 182.663 253.888 182.269C253.888 181.514 253.888 180.415 253.888 179.064C253.948 176.355 254.166 172.596 254.413 168.493C254.661 164.389 254.834 160.645 254.849 157.936C254.849 156.585 254.849 155.493 254.849 154.738C254.816 154.345 254.831 153.949 254.894 153.56C254.987 153.944 255.04 154.336 255.051 154.731C255.126 155.45 255.179 156.578 255.216 157.936C255.291 160.645 255.216 164.404 254.931 168.521C254.646 172.639 254.436 176.268 254.248 179.078C254.181 180.343 254.12 181.414 254.068 182.276C254.081 182.669 254.046 183.062 253.963 183.447Z" fill="#444455"/>
<path d="M290.766 182.657C290.282 182.684 289.797 182.665 289.317 182.599C288.386 182.535 287.065 182.427 285.376 182.355C282.043 182.183 277.442 182.096 272.353 182.211C267.264 182.326 262.67 182.635 259.345 182.93C257.686 183.074 256.342 183.225 255.419 183.325C254.938 183.405 254.451 183.441 253.963 183.433C254.428 183.292 254.905 183.191 255.389 183.131C256.312 182.973 257.641 182.772 259.307 182.578C262.632 182.175 267.241 181.823 272.345 181.694C276.699 181.58 281.056 181.678 285.399 181.989C287.065 182.111 288.401 182.262 289.339 182.391C289.823 182.435 290.3 182.524 290.766 182.657Z" fill="#444455"/>
<path d="M231.917 218.998C231.917 218.998 231.842 218.848 231.745 218.546C231.647 218.244 231.504 217.748 231.339 217.209C231.002 216.052 230.551 214.335 230.026 212.272C228.975 208.082 227.714 202.262 226.408 195.808C225.102 189.355 223.893 183.534 222.932 179.33C222.459 177.289 222.069 175.607 221.784 174.357C221.656 173.818 221.559 173.365 221.476 172.999C221.429 172.842 221.404 172.68 221.401 172.517C221.485 172.661 221.546 172.816 221.581 172.977C221.686 173.337 221.814 173.775 221.979 174.307C222.317 175.464 222.767 177.181 223.293 179.251C224.344 183.433 225.612 189.261 226.911 195.715C228.209 202.168 229.425 207.989 230.386 212.193C230.859 214.234 231.249 215.916 231.534 217.166C231.662 217.705 231.76 218.15 231.842 218.517C231.889 218.674 231.914 218.836 231.917 218.998Z" fill="#444455"/>
<path d="M281.871 211.798C281.709 211.855 281.54 211.891 281.368 211.906L279.912 212.136L274.56 212.912C270.056 213.573 263.818 214.557 256.935 215.642C250.052 216.728 243.807 217.662 239.273 218.23C237.022 218.517 235.168 218.733 233.899 218.855L232.398 218.991C232.229 219.016 232.056 219.016 231.887 218.991C232.05 218.938 232.219 218.902 232.39 218.883L233.839 218.653L239.191 217.877C243.694 217.216 249.94 216.239 256.823 215.147C263.706 214.054 269.951 213.127 274.485 212.56C276.737 212.272 278.583 212.056 279.859 211.934L281.36 211.805C281.529 211.777 281.701 211.774 281.871 211.798Z" fill="#444455"/>
<path d="M96.4193 68.9282C95.2487 67.9849 94.357 66.7593 93.8347 65.3756C93.3124 63.9918 93.178 62.4992 93.4453 61.0491C93.7401 59.6064 94.3285 58.2347 95.1763 57.0136C96.024 55.7924 97.1143 54.7461 98.3838 53.9354C99.5408 53.185 100.977 52.5547 102.328 52.9374C102.948 53.1556 103.496 53.5292 103.916 54.0198C104.336 54.5103 104.614 55.1002 104.72 55.7288C104.916 56.996 104.761 58.2907 104.27 59.4808C102.794 63.5929 100.589 67.3149 96.4193 68.9507" fill="#00AA99"/>
<path d="M92.4824 75.9514C90.0903 73.883 87.2223 72.3955 84.1163 71.6125C81.0103 70.8295 77.7558 70.7735 74.623 71.4491C73.07 71.8018 71.2452 72.6122 70.9889 74.1655C70.7327 75.7188 72.1615 77.047 73.5747 77.8424C76.5576 79.4428 79.964 80.1542 83.3646 79.8872C86.7652 79.6201 90.0079 78.3864 92.6843 76.3416" fill="#00AA99"/>
<path d="M69.7232 43.43C71.0422 43.1358 72.4088 43.0998 73.7424 43.324C75.076 43.5483 76.3496 44.0283 77.4882 44.7357C79.7751 46.1773 81.688 48.1081 83.079 50.3786C85.8899 54.6709 86.8839 60.4488 87.0081 65.529C81.1688 65.3039 76.1837 60.8691 73.8076 58.4603C70.0338 54.6633 65.6078 45.5911 69.6766 43.4525" fill="#00AA99"/>
<path d="M101.311 83.6285C100.78 82.9478 100.292 82.236 99.8514 81.4974C98.3405 78.6346 97.2356 75.5882 96.5668 72.4402C95.9083 69.251 96.1606 65.9488 97.2967 62.8877C97.6517 61.9715 98.1238 61.1018 98.7022 60.2989C98.8987 59.9925 99.1421 59.7167 99.4244 59.481C98.7495 60.6158 98.168 61.8 97.685 63.0228C96.7001 66.0366 96.5132 69.241 97.1414 72.3426C97.8186 75.4487 98.8607 78.4698 100.247 81.3473" fill="#444455"/>
<path d="M101.366 83.6958L98.3217 79.9063C95.767 76.7022 92.2184 72.2824 88.2272 67.4499C84.236 62.6174 80.5787 58.2951 77.9231 55.1735L74.8171 51.4215C74.4081 50.9856 74.0392 50.5161 73.7145 50.0183C74.1726 50.4056 74.5984 50.8271 74.9879 51.279C75.7644 52.1194 76.9059 53.3425 78.2803 54.8733C81.0213 57.9349 84.7408 62.2272 88.732 67.0597C92.7232 71.8922 96.2097 76.357 98.6867 79.6287C99.9291 81.2645 100.915 82.6302 101.583 83.5232" fill="#444455"/>
<path d="M78.2647 74.7736C78.5823 74.6217 78.9232 74.5203 79.2742 74.4734C79.6737 74.3671 80.0813 74.2918 80.4933 74.2483C81.0357 74.1616 81.5827 74.104 82.1317 74.0757C83.5649 73.9884 85.0035 74.0412 86.4257 74.2333C88.1637 74.4838 89.8689 74.914 91.5118 75.5165C93.1473 76.1482 94.709 76.9456 96.1708 77.8952C97.3512 78.6821 98.4464 79.5822 99.4398 80.5816C99.8278 80.9591 100.193 81.3574 100.535 81.7747C100.815 82.0779 101.075 82.3988 101.311 82.7352C101.692 83.283 101.637 83.5381 101.606 83.5607C100.849 82.6216 100.04 81.7224 99.1836 80.8668C98.1704 79.9301 97.0739 79.0814 95.9068 78.3304C94.4682 77.4362 92.9414 76.6821 91.3487 76.0793C89.7427 75.4906 88.0808 75.0558 86.3869 74.7811C85.0006 74.5677 83.5971 74.4772 82.1938 74.511C79.7401 74.5335 78.2647 74.8787 78.2647 74.7736Z" fill="#444455"/>
<path fill-rule="evenodd" clip-rule="evenodd" d="M101.211 135.461C101.211 96.639 101.21 57.8169 101.211 18.9949C101.211 17.2161 101.224 15.4453 101.62 13.6874C103.286 6.27899 109.567 1.06172 116.457 0.243936C117.607 0.107337 118.771 0.017828 119.928 0.0173514C152.587 0.00553125 185.246 0.0137291 217.906 2.46581e-06C221.669 -0.00152272 225.224 0.704256 228.409 2.74791C233.187 5.81343 235.925 10.1454 236.529 15.7433C236.645 16.8147 236.678 17.8992 236.678 18.9776C236.685 96.7491 236.684 174.521 236.684 252.292C236.684 254.2 236.612 256.1 236.148 257.968C234.255 265.579 227.696 270.936 219.761 271.333C219.053 271.368 218.342 271.367 217.632 271.367C185.167 271.368 152.701 271.363 120.236 271.377C117.631 271.378 115.087 271.12 112.635 270.214C106 267.762 101.467 261.559 101.237 254.596C101.203 253.58 101.211 252.563 101.211 251.546C101.21 212.851 101.21 174.156 101.211 135.461Z" fill="#E0E0E6"/>
<path fill-rule="evenodd" clip-rule="evenodd" d="M230.526 135.907C230.526 174.694 230.527 213.48 230.523 252.267C230.522 253.726 230.544 255.182 230.174 256.625C228.925 261.5 224.684 264.978 219.566 265.255C218.92 265.291 218.271 265.288 217.623 265.288C185.292 265.29 152.961 265.289 120.629 265.29C119.267 265.29 117.916 265.244 116.58 264.912C111.799 263.724 108.286 259.621 107.958 254.782C107.902 253.958 107.894 253.13 107.893 252.304C107.884 247.344 107.882 242.385 107.882 237.425C107.881 165.956 107.881 94.4871 107.884 23.0182C107.884 21.1109 107.911 19.2035 107.945 17.2966C108.011 13.6765 110.5 8.81343 116.051 7.17552C117.214 6.83239 118.467 6.64866 119.681 6.6333C124.604 6.57091 129.529 6.60201 134.453 6.60182C134.776 6.60182 135.104 6.60115 135.423 6.64723C136.269 6.76991 136.656 7.14585 136.808 7.99524C136.943 8.7458 137.005 9.51134 137.178 10.2522C137.835 13.0483 139.871 14.9283 142.769 15.3788C143.788 15.5373 144.83 15.6298 145.862 15.6309C161.412 15.6464 176.962 15.6451 192.512 15.6329C193.415 15.6321 194.326 15.5542 195.22 15.4271C198.637 14.9415 200.799 12.8002 201.306 9.44094C201.382 8.9385 201.388 8.42394 201.491 7.9278C201.661 7.10875 202.087 6.73537 202.948 6.63635C203.396 6.58475 203.854 6.59953 204.307 6.59934C208.842 6.5982 213.378 6.58265 217.913 6.61394C219.008 6.62147 220.12 6.69464 221.193 6.89573C226.448 7.88029 230.239 12.2075 230.492 17.4501C230.532 18.2752 230.525 19.1029 230.525 19.9294C230.527 58.5886 230.526 97.2479 230.526 135.907Z" fill="#F1F0F5"/>
<path d="M163.639 238.357C163.698 238.74 163.636 239.131 163.464 239.478C163.291 239.825 163.015 240.111 162.673 240.298C162.331 240.484 161.94 240.563 161.552 240.522C161.164 240.482 160.798 240.325 160.502 240.071C160.207 239.818 159.997 239.482 159.901 239.107C159.805 238.732 159.827 238.336 159.964 237.974C160.101 237.612 160.347 237.3 160.669 237.081C160.99 236.861 161.371 236.745 161.762 236.747C162.225 236.718 162.681 236.871 163.032 237.172C163.383 237.473 163.601 237.898 163.639 238.357Z" fill="#AAAAB7"/>
<path d="M169.478 238.39C169.535 238.772 169.472 239.163 169.298 239.509C169.124 239.855 168.847 240.14 168.505 240.325C168.163 240.511 167.772 240.588 167.384 240.547C166.997 240.505 166.631 240.347 166.337 240.093C166.042 239.84 165.833 239.503 165.738 239.128C165.642 238.753 165.665 238.358 165.803 237.996C165.94 237.635 166.186 237.323 166.508 237.104C166.829 236.885 167.211 236.769 167.601 236.772C168.065 236.743 168.522 236.897 168.873 237.2C169.224 237.502 169.442 237.93 169.478 238.39Z" fill="#AAAAB7"/>
<path d="M175.317 238.41C175.375 238.793 175.314 239.184 175.141 239.531C174.968 239.878 174.693 240.164 174.351 240.351C174.009 240.538 173.618 240.616 173.23 240.576C172.842 240.535 172.475 240.378 172.18 240.125C171.885 239.872 171.675 239.535 171.579 239.16C171.483 238.785 171.505 238.39 171.642 238.028C171.779 237.665 172.025 237.354 172.346 237.134C172.668 236.915 173.049 236.798 173.439 236.8C173.903 236.77 174.36 236.922 174.712 237.223C175.063 237.525 175.281 237.951 175.317 238.41Z" fill="#AAAAB7"/>
<g filter="url(#filter0_d)">
<path d="M207.397 146.087H35.0727C34.4575 146.086 33.8481 146.201 33.2796 146.427C32.7111 146.652 32.1947 146.983 31.76 147.4C31.3253 147.817 30.9809 148.312 30.7466 148.857C30.5123 149.402 30.3928 149.985 30.3948 150.575V204.313C30.3948 205.501 30.8876 206.641 31.7649 207.481C32.6422 208.321 33.832 208.793 35.0727 208.793H160.232L171.604 220.652C171.604 220.652 172.795 213.986 173.803 208.793H207.375C208.615 208.793 209.805 208.321 210.682 207.481C211.56 206.641 212.053 205.501 212.053 204.313V150.575C212.055 149.987 211.936 149.405 211.703 148.862C211.47 148.318 211.128 147.824 210.695 147.407C210.263 146.991 209.749 146.66 209.184 146.433C208.618 146.206 208.011 146.089 207.397 146.087Z" fill="#FF9326"/>
</g>
<path d="M73.6186 202.959C74.7603 202.614 75.902 202.201 76.9724 201.789C78.0428 201.169 79.1845 200.618 80.3262 200.137C80.683 199.93 81.0398 199.724 81.3966 199.517C81.4679 199.448 81.5393 199.448 81.6106 199.38C84.9644 197.315 87.8187 194.631 90.0308 191.603C90.3162 191.258 90.5303 190.914 90.7444 190.57C93.5273 186.303 95.1685 181.279 95.1685 175.911C95.1685 171.506 94.0982 167.377 92.1715 163.66C92.1715 163.591 92.1002 163.522 92.0288 163.454C90.7444 160.976 89.0318 158.705 87.0338 156.64C83.7514 153.337 79.6126 150.79 74.9744 149.207C71.6206 148.037 68.0527 147.418 64.2708 147.418C64.0567 147.418 63.914 147.418 63.6999 147.418C61.131 147.487 58.7049 147.762 56.2787 148.381C55.2084 148.657 54.2094 148.932 53.2104 149.276C52.7109 149.414 52.2827 149.62 51.8546 149.827C46.3601 152.029 41.7218 155.677 38.4394 160.219C37.369 161.733 36.4414 163.316 35.7278 164.968C35.6564 165.037 35.6564 165.174 35.5851 165.243C34.8715 166.826 34.372 168.478 34.0152 170.198C33.6584 171.988 33.4444 173.846 33.4444 175.704C33.4444 177.975 33.7298 180.178 34.3007 182.243C34.3007 182.38 34.372 182.518 34.372 182.655C34.6574 183.55 34.9429 184.445 35.2997 185.34C35.4424 185.684 35.5851 186.028 35.7278 186.372C36.7268 188.643 38.0826 190.777 39.6525 192.773C40.7942 194.149 42.0786 195.526 43.5058 196.696C43.5771 196.764 43.6485 196.833 43.7912 196.902C44.148 197.177 44.5048 197.453 44.8616 197.728C45.2183 198.003 45.6465 198.278 46.0033 198.554C47.4304 199.517 48.9289 200.343 50.4988 201.1C52.0687 201.789 53.6385 202.408 55.3511 202.89C56.7782 203.303 58.2768 203.578 59.7753 203.784C60.4888 203.853 61.131 203.991 61.8446 203.991C62.7009 204.06 63.5572 204.06 64.4135 204.06C65.8406 204.06 67.2678 203.991 68.6236 203.784C70.1934 203.853 71.906 203.509 73.6186 202.959Z" fill="#F1F0F5"/>
<path d="M47.5018 134.41C47.145 134.41 41.8645 135.236 41.8645 135.236L34.8002 143.839L33.7298 145.491L43.2203 151.341L47.4304 145.353L50.9983 143.082C49.9279 142.256 48.4294 142.119 47.2164 142.669C45.7892 143.22 44.2907 143.495 42.7922 143.495L44.0766 140.054L47.9299 139.297L47.5018 134.41Z" fill="#EB996E"/>
<path d="M47.0023 128.422C46.4314 128.285 45.7892 128.629 45.6465 129.18C45.6465 129.248 45.6465 129.248 45.6465 129.317C45.0756 132.827 43.2917 143.426 42.7922 146.523C42.7208 147.005 43.0062 147.555 43.5771 147.693L51.9973 149.964C52.5681 150.102 53.139 149.827 53.2817 149.276C53.2817 149.207 53.2817 149.207 53.2817 149.138L55.5652 131.588C55.6365 131.038 55.2797 130.556 54.7802 130.418L47.0023 128.422Z" fill="#444455"/>
<path d="M52.6395 147.762L44.0766 145.491L46.3601 130.9C46.5028 130.143 47.2164 129.593 48.0013 129.73C48.0726 129.73 48.144 129.73 48.144 129.73L54.9943 131.52L52.6395 147.762Z" fill="white"/>
<path d="M44.2907 137.025L48.144 139.778C48.144 139.778 47.7872 140.742 47.2164 140.811C46.0033 140.673 44.7188 140.398 43.5058 140.054L44.2907 137.025Z" fill="#EB996E"/>
<path d="M44.7188 134.823L48.7149 136.544C48.7149 136.544 49.0003 137.782 47.4304 137.645L48.7862 138.608C48.7862 138.608 48.4294 139.159 46.7882 139.228C45.147 139.297 43.5771 137.025 43.5771 137.025L44.7188 134.823Z" fill="#EB996E"/>
<path d="M40.7228 139.159C40.7228 139.228 41.2223 139.09 41.7218 138.608C42.0073 138.333 42.2927 138.058 42.6495 137.851C43.0063 137.576 43.5058 137.507 43.9339 137.714C45.0756 138.333 46.2174 138.884 47.4304 139.297C46.3601 138.54 45.2897 137.851 44.0766 137.37C43.7912 137.232 43.5058 137.232 43.2203 137.301C42.9349 137.37 42.7208 137.438 42.5068 137.645C42.15 137.92 41.8646 138.196 41.5791 138.471C41.3651 138.677 41.0796 138.953 40.7228 139.159Z" fill="#D1734A"/>
<path d="M41.5078 148.863C42.9349 147.212 43.149 144.94 42.15 143.013C42.364 143.977 42.4354 145.009 42.364 145.973C42.2213 146.936 41.9359 147.9 41.5078 148.863Z" fill="#D1734A"/>
<path d="M42.0072 136.544C42.0786 136.612 42.2927 136.268 42.7922 136.131C43.5057 135.924 44.2193 135.993 44.8615 136.337C45.6465 136.681 46.2887 137.163 46.8595 137.37C47.4304 137.576 47.7872 137.645 47.7872 137.576C47.7872 137.507 47.5018 137.438 47.0023 137.094C46.5028 136.75 45.8605 136.337 45.0756 135.993C44.7188 135.787 44.2907 135.718 43.8625 135.649C43.5057 135.649 43.149 135.718 42.7922 135.855C42.2213 136.131 42.0072 136.544 42.0072 136.544Z" fill="#D1734A"/>
<path d="M42.3641 160.907L21.385 173.915L26.9509 189.263C26.9509 189.263 41.2937 184.996 41.0083 184.514C40.7228 184.032 42.3641 160.907 42.3641 160.907Z" fill="#000066"/>
<path d="M77.1864 124.362L74.1181 158.774L56.2787 157.397C56.2074 155.401 56.3501 147.624 56.3501 147.624C56.3501 147.624 48.9289 146.523 48.8575 139.365C48.7862 135.855 49.2857 128.698 49.7852 122.159C50.4274 115.002 56.8496 109.565 64.2707 109.978C71.8346 110.391 77.6146 116.654 77.1864 123.949C77.1864 124.086 77.1864 124.224 77.1864 124.362Z" fill="#EB996E"/>
<path d="M56.2787 147.487C59.7039 147.555 63.0577 146.592 65.9833 144.802C65.9833 144.802 63.6999 149.964 56.2787 149.345V147.487Z" fill="#D1734A"/>
<path d="M52.6395 127.183C52.6395 127.734 53.0676 128.216 53.6385 128.216C54.2094 128.285 54.7089 127.872 54.7089 127.321C54.7089 126.771 54.2807 126.289 53.7099 126.289C53.2104 126.22 52.7109 126.633 52.6395 127.183Z" fill="#444455"/>
<path d="M51.3551 125.738C51.4978 125.876 52.2827 125.325 53.4244 125.325C54.5662 125.325 55.4224 125.876 55.4938 125.738C55.5652 125.6 55.4224 125.463 55.0657 125.187C54.5661 124.843 53.9953 124.706 53.3531 124.706C52.7822 124.706 52.2114 124.912 51.7119 125.256C51.4264 125.463 51.2837 125.669 51.3551 125.738Z" fill="#444455"/>
<path d="M63.6285 127.183C63.6285 127.734 64.0567 128.216 64.6275 128.216C65.1984 128.285 65.6979 127.872 65.6979 127.321C65.6979 126.771 65.2698 126.289 64.6989 126.289C64.1994 126.22 63.6999 126.633 63.6285 127.183Z" fill="#444455"/>
<path d="M62.6295 125.944C62.7723 126.082 63.5572 125.532 64.6989 125.532C65.8406 125.532 66.6969 126.082 66.7683 125.944C66.8396 125.807 66.6969 125.669 66.3401 125.394C65.8406 125.05 65.2698 124.912 64.6276 124.912C64.0567 124.912 63.4858 125.119 62.9863 125.463C62.6295 125.669 62.5582 125.876 62.6295 125.944Z" fill="#444455"/>
<path d="M58.4195 134.135C57.8486 133.928 57.2064 133.859 56.5642 133.791C56.2788 133.791 55.9933 133.722 55.922 133.515C55.922 133.24 55.9933 132.965 56.1361 132.689C56.4215 132.001 56.7069 131.313 56.9923 130.556C58.2054 127.528 59.0617 124.981 58.919 124.981C58.7763 124.981 57.7059 127.39 56.4928 130.418C56.2074 131.175 55.922 131.864 55.7079 132.552C55.4938 132.896 55.4938 133.309 55.5652 133.653C55.6366 133.859 55.8506 133.997 56.0647 134.066C56.2074 134.135 56.4215 134.135 56.5642 134.135C57.2064 134.204 57.8486 134.204 58.4195 134.135Z" fill="#444455"/>
<path d="M61.8446 134.892C61.6306 134.892 61.6306 136.062 60.6316 136.957C59.5612 137.851 58.2768 137.645 58.2054 137.851C58.134 138.058 58.4908 138.058 59.0617 138.058C59.7753 138.058 60.4888 137.851 61.0597 137.369C61.6306 136.957 61.9873 136.337 62.0587 135.649C61.9873 135.167 61.916 134.892 61.8446 134.892Z" fill="#444455"/>
<path d="M62.2728 121.609C62.4155 121.884 63.5572 121.747 64.8416 121.953C66.1261 122.16 67.2678 122.435 67.4105 122.16C67.4819 122.022 67.3391 121.747 66.8396 121.471C65.6266 120.714 64.1994 120.577 62.915 121.058C62.4868 121.265 62.2728 121.471 62.2728 121.609Z" fill="#444455"/>
<path d="M51.7832 122.572C51.9973 122.847 52.7822 122.572 53.7099 122.572C54.6375 122.572 55.4938 122.779 55.6365 122.503C55.7079 122.366 55.5652 122.09 55.2084 121.884C54.2807 121.333 52.9963 121.333 52.0686 121.953C51.8546 122.159 51.7119 122.435 51.7832 122.572Z" fill="#444455"/>
<path d="M69.123 116.516C70.3361 117.411 71.1211 118.718 71.3351 120.164V120.301C71.6206 122.366 71.5492 124.431 71.906 126.495C72.2628 128.56 72.9763 130.625 74.5462 132.001C75.1884 132.552 76.3301 132.965 76.8296 132.277C77.0437 132.001 77.1151 131.657 77.1151 131.313C77.5432 126.358 78.899 122.022 78.899 116.86C78.899 115.484 78.2568 114.107 77.0437 113.281C75.902 112.524 74.5462 111.698 73.3331 112.249C72.0487 112.799 70.4788 115.071 69.4798 116.034L69.123 116.516Z" fill="#444455"/>
<path d="M74.689 127.597C74.8317 127.528 79.7553 126.151 79.6126 131.038C79.4699 135.924 74.4035 134.754 74.4035 134.617C74.4035 134.479 74.689 127.597 74.689 127.597Z" fill="#EB996E"/>
<path d="M76.0448 132.827C76.0448 132.827 76.1161 132.896 76.2588 132.965C76.4729 133.034 76.687 133.102 76.9011 133.034C77.6146 132.621 77.9714 131.932 77.9714 131.175C77.9714 130.762 77.9001 130.349 77.7573 129.936C77.686 129.592 77.4006 129.386 77.1151 129.248C76.9011 129.179 76.687 129.248 76.5443 129.455C76.4729 129.592 76.4729 129.661 76.4729 129.661C76.4729 129.661 76.4016 129.592 76.4729 129.386C76.4729 129.248 76.6156 129.179 76.687 129.111C76.8297 129.042 76.9724 128.973 77.1865 128.973C77.6146 129.042 77.9714 129.386 78.1141 129.799C78.3282 130.212 78.3996 130.693 78.3996 131.175C78.3282 132.139 77.7573 133.102 77.0438 133.24C76.7583 133.309 76.4729 133.24 76.2588 133.102C76.0448 132.896 75.9734 132.827 76.0448 132.827Z" fill="#D1734A"/>
<path d="M73.4045 113.075C74.6889 111.148 71.2638 108.326 68.6949 107.569C66.1261 106.812 62.915 107.982 60.4175 108.808C58.8476 109.29 57.2777 110.047 55.6365 109.978C54.4948 109.84 53.4244 109.565 52.4254 109.152C51.4264 108.739 50.2847 108.532 49.2143 108.532C48.0726 108.532 47.0736 109.152 46.5741 110.184C46.146 111.148 46.7882 112.524 47.8586 112.662C46.6455 112.042 45.147 112.455 44.5048 113.625C43.8625 114.795 44.2907 116.241 45.5038 116.86C46.0033 117.135 46.6455 117.204 47.2163 117.067C46.5028 116.516 45.361 117.411 45.5038 118.305C45.7178 119.2 46.36 119.888 47.2163 120.164C49.3571 121.058 51.7832 120.783 53.9953 120.026C56.2074 119.269 58.2054 118.237 60.4175 117.411C62.6295 116.654 66.1974 115.277 68.4095 116.034C70.0507 116.585 71.1211 118.443 72.0487 118.03C72.905 117.617 73.5472 116.791 73.6899 115.828C73.8327 114.933 73.7613 113.97 73.6186 113.075H73.4045Z" fill="#444455"/>
<path d="M47.2163 112.525C47.2877 112.525 47.5018 112.869 48.0013 113.419C48.7862 114.245 49.7139 114.796 50.8556 115.209C52.4254 115.759 54.138 115.69 55.7079 115.002C57.4205 114.245 58.919 112.731 60.6315 111.355C62.2014 109.909 64.1994 109.015 66.3401 108.739C68.1241 108.533 69.908 109.152 71.1924 110.322C71.9774 111.148 72.4055 112.318 72.3342 113.488C72.3342 113.763 72.2628 114.107 72.1201 114.383C72.0487 114.589 71.9774 114.658 71.9774 114.658C72.0487 114.245 72.1201 113.901 72.1914 113.488C72.1914 112.387 71.7633 111.355 70.9784 110.529C69.7653 109.427 68.0527 108.877 66.4115 109.083C64.3421 109.427 62.4868 110.322 60.9883 111.63C59.3471 113.006 57.7772 114.52 55.9219 115.346C53.0676 116.585 49.7852 115.828 47.8586 113.557C47.6445 113.35 47.5018 113.075 47.3591 112.8C47.2163 112.593 47.2163 112.525 47.2163 112.525Z" fill="white"/>
<path d="M75.9734 127.39C75.9734 127.39 75.7593 127.252 75.5453 126.84C75.2598 126.289 75.1885 125.67 75.2598 125.05C75.4026 123.467 76.8297 121.747 76.9724 119.613C77.1151 118.581 76.9011 117.617 76.4016 116.654C75.9734 115.965 75.3312 115.415 74.5463 115.071C73.9754 114.864 73.4045 114.795 72.8337 114.864C72.4055 114.933 72.1915 115.002 72.1915 115.002C72.3342 114.864 72.5483 114.727 72.8337 114.727C73.4759 114.589 74.1181 114.589 74.689 114.795C75.5453 115.071 76.3302 115.69 76.8297 116.447C77.4006 117.411 77.6146 118.512 77.4719 119.682C77.3292 120.783 77.0438 121.815 76.4729 122.779C76.0448 123.536 75.7593 124.293 75.5453 125.119C75.5453 125.876 75.6166 126.702 75.9734 127.39Z" fill="#E0E0E5"/>
<path d="M51.2837 157.053C51.2837 157.053 45.4324 158.911 42.5781 160.013C42.364 160.081 42.15 160.563 42.0072 161.114C41.7218 162.559 41.6505 164.83 41.7218 165.243L40.4374 181.83L40.366 183.069L40.2233 184.996L39.5811 192.91C40.7228 194.287 42.0072 195.663 43.4344 196.833C43.4344 196.902 43.4344 196.971 43.4344 197.04C43.5057 197.109 43.5771 197.177 43.6485 197.246C43.6485 197.177 43.6485 197.109 43.6485 197.04C44.0052 197.315 44.362 197.59 44.7188 197.866C45.0756 198.141 45.5038 198.416 45.8605 198.692L47.4304 185.753C48.2153 181.279 51.0696 169.097 52.9249 161.251V161.183C53.7099 158.017 54.2807 155.539 54.4948 154.576L54.5661 154.163L51.2837 157.053Z" fill="#000066"/>
<path d="M87.0338 156.571C89.0318 158.636 90.7444 160.907 92.0288 163.385C94.0268 167.101 95.1685 171.506 95.2399 175.842C95.2399 181.21 93.5987 186.234 90.8157 190.501C90.6017 190.845 90.3876 191.19 90.1022 191.534C87.8901 194.562 85.0358 197.246 81.682 199.311V199.448C81.6106 199.517 81.5393 199.517 81.4679 199.586V199.448L80.3975 200.068C79.2558 200.55 78.1141 201.1 77.0438 201.72C75.9734 202.133 74.8317 202.545 73.6899 202.89C72.0487 203.371 70.3362 203.715 68.5522 203.922C66.1974 198.416 64.3421 191.74 65.2698 188.23C66.1974 184.514 72.0487 166.344 75.0457 156.984C75.0457 156.915 75.1171 156.778 75.1171 156.709C76.1161 153.681 76.7583 151.616 76.8297 151.409L81.8961 154.644L87.0338 156.571Z" fill="#000066"/>
<path d="M73.6186 202.958C74.7603 202.614 75.902 202.201 76.9724 201.788C77.1865 201.65 77.4005 201.513 77.6146 201.444L74.1181 190.432C73.2618 187.817 72.7623 185.133 72.4769 182.449V182.38C72.4055 181.485 72.3342 180.59 72.2628 179.764L76.0448 156.296V156.158L76.8297 151.478L75.1885 149.62L74.9744 149.757L60.9883 156.227L59.2758 156.089L56.2074 154.024L56.0647 153.956L54.6375 154.162L54.5662 154.575L52.8536 161.182V161.251L47.4304 182.586C46.9309 184.307 46.4314 189.193 45.2897 191.602L44.6475 197.934C45.0043 198.209 45.4324 198.485 45.7892 198.76C47.2164 199.723 48.7149 200.549 50.2847 201.306C51.8546 201.995 53.4245 202.614 55.137 203.096C56.5642 203.509 58.0627 203.784 59.5612 203.99C60.2748 204.059 60.917 204.197 61.6306 204.197C62.4868 204.266 63.3431 204.266 64.1994 204.266C65.6266 204.266 67.0537 204.197 68.4095 203.99C70.1934 203.853 71.906 203.509 73.6186 202.958Z" fill="white"/>
<path d="M76.9724 201.789C77.2578 201.652 77.4719 201.514 77.7573 201.376C75.1171 192.291 72.6909 183.344 72.4769 182.45V182.381C71.4065 189.263 71.906 196.214 73.69 202.959C74.7603 202.684 75.8307 202.271 76.9724 201.789Z" fill="white"/>
<path d="M58.4908 158.499H61.7019L62.6295 162.697L59.8466 165.931L57.0637 165.656L56.136 162.628L56.921 160.976L58.4908 158.499Z" fill="#000066"/>
<path d="M40.0092 183C39.0102 183.206 27.9498 190.364 23.9538 189.607C19.9578 188.85 16.6754 185.133 16.2472 184.652C13.9638 182.036 15.3909 176.668 16.0331 174.603C16.2472 174.121 16.4613 173.64 16.7467 173.158L33.8011 144.94L43.8625 150.859L33.373 169.166L40.0092 183Z" fill="#000066"/>
<path d="M40.0806 183.825C40.2233 183.55 40.2947 183.275 40.3661 183C40.5088 182.449 40.7228 181.623 40.9369 180.66C41.4364 178.044 41.8646 175.429 42.0786 172.745C42.2927 170.13 42.4354 167.445 42.3641 164.761C42.3641 163.729 42.2927 162.903 42.2927 162.352C42.2927 162.077 42.2213 161.733 42.2213 161.458C42.15 161.733 42.15 162.077 42.15 162.352C42.15 162.972 42.15 163.798 42.15 164.761C42.15 166.826 42.0073 169.579 41.7219 172.676C41.4364 175.773 41.0083 178.526 40.6515 180.522C40.5088 181.485 40.3661 182.243 40.2233 182.862C40.152 183.206 40.0806 183.55 40.0806 183.825Z" fill="#444455"/>
<path d="M31.3036 185.477C31.3036 185.477 31.375 185.477 31.5177 185.409C31.7318 185.34 31.9458 185.202 32.1599 185.133C32.8735 184.72 33.5157 184.101 33.9438 183.344C34.5861 182.243 35.0142 181.142 35.2283 179.903C35.5851 178.457 35.8705 176.943 36.0846 175.498C36.37 172.332 36.6554 169.441 36.7981 167.377C36.8695 166.413 36.9409 165.587 37.0122 164.899C37.0122 164.624 37.0122 164.28 37.0122 164.004C36.9409 164.28 36.8695 164.624 36.8695 164.899C36.7981 165.587 36.7268 166.344 36.5841 167.377C36.37 169.441 36.0846 172.332 35.7991 175.498C35.5851 177.081 35.2996 178.526 35.0142 179.903C34.8001 181.073 34.4433 182.243 33.8011 183.344C33.373 184.032 32.8021 184.652 32.1599 185.133C31.589 185.34 31.3036 185.409 31.3036 185.477Z" fill="#444455"/>
<path d="M92.4325 164.348C92.36 164.476 92.2876 164.54 92.2152 164.668C92.1427 164.796 92.0703 164.861 91.9978 164.989C91.8529 165.181 91.7805 165.374 91.6356 165.63C91.4183 166.015 91.1285 166.464 90.9111 166.977C90.3316 168.131 89.8244 169.349 89.3898 170.567C88.3755 173.581 87.8684 176.722 87.8684 179.864C87.8684 181.147 87.9409 182.429 88.1582 183.711C88.2306 184.224 88.3031 184.737 88.448 185.186C88.5204 185.635 88.5929 185.955 88.6653 186.276C88.7378 186.597 88.8102 186.917 88.9551 187.174C88.9551 186.853 88.8827 186.533 88.8102 186.212C88.7378 185.891 88.6653 185.571 88.5929 185.122C88.5204 184.673 88.448 184.224 88.3755 183.647C88.2306 182.365 88.1582 181.083 88.1582 179.864C88.1582 178.325 88.3031 176.787 88.5204 175.248C88.8102 173.709 89.1724 172.17 89.6071 170.695C90.0418 169.477 90.4765 168.259 91.056 167.105C91.2734 166.592 91.5631 166.143 91.708 165.758C91.7805 165.566 91.9254 165.374 91.9978 165.245C92.0703 165.053 92.2152 164.925 92.2876 164.796C92.3601 164.732 92.36 164.604 92.4325 164.476C92.5049 164.412 92.5049 164.412 92.4325 164.348Z" fill="#444455"/>
<path d="M79.5413 182.587C80.4689 186.235 81.0398 190.02 81.1825 193.805C81.2539 195.87 81.3252 197.797 81.3966 199.586C81.3966 199.655 81.3966 199.655 81.3966 199.724C81.4679 199.655 81.5393 199.655 81.6107 199.586C81.6107 199.518 81.6107 199.518 81.6107 199.449C81.5393 197.728 81.5393 195.801 81.3966 193.805C81.3252 190.02 80.7544 186.235 79.8267 182.518C79.3272 180.729 78.6136 178.939 77.686 177.288C78.4709 177.081 79.1845 176.668 79.684 176.118C80.2549 175.498 80.683 174.741 80.8971 173.984C81.2539 172.539 81.3252 171.025 81.2539 169.51V155.883C81.2539 155.746 81.2539 155.608 81.2539 155.402C81.2539 155.539 81.1825 155.677 81.2539 155.883C81.2539 156.227 81.2539 156.64 81.2539 157.191C81.2539 158.361 81.1825 160.013 81.1825 162.078C81.1825 164.142 81.1111 166.689 81.1111 169.51C81.1825 170.956 81.0398 172.47 80.7544 173.915C80.5403 174.672 80.1835 175.36 79.6126 175.911C79.0418 176.531 78.3282 176.943 77.5433 177.012L77.2578 177.081L77.4006 177.288C78.2569 178.939 79.0418 180.729 79.5413 182.587Z" fill="#444455"/>
<path d="M51.0696 157.879C50.9983 158.154 50.8556 158.567 50.6415 158.98L49.143 163.109C48.5008 164.899 47.7872 166.964 47.0023 169.304C46.5741 170.474 46.146 171.712 45.7892 173.02C45.5751 173.708 45.5751 174.465 45.7178 175.154C45.8605 175.842 46.2173 176.461 46.8595 176.943C46.2887 177.769 45.7178 178.664 45.147 179.558C44.2193 180.935 43.5771 182.449 43.149 184.032C42.7922 185.546 42.7208 187.06 42.7922 188.574C42.9349 191.465 43.149 194.011 43.2917 196.145C43.2917 196.42 43.2917 196.627 43.363 196.902C43.363 196.971 43.363 197.04 43.363 197.108C43.4344 197.177 43.5057 197.246 43.5771 197.315C43.5771 197.246 43.5771 197.177 43.5771 197.108C43.5771 196.764 43.5771 196.489 43.5057 196.145C43.363 194.011 43.2203 191.396 43.0776 188.574C43.0062 187.06 43.0776 185.615 43.4344 184.169C43.8625 182.655 44.5047 181.141 45.4324 179.834C46.0033 178.87 46.6455 177.975 47.2163 177.081L47.2877 176.943L47.145 176.874C46.5741 176.53 46.146 175.911 46.0746 175.222C45.9319 174.534 46.0033 173.846 46.146 173.227C46.5028 171.919 47.0023 170.68 47.359 169.51C48.144 167.17 48.8576 165.036 49.4284 163.247C49.9993 161.458 50.4988 160.081 50.7842 159.118C50.9269 158.636 51.0696 158.292 51.141 158.016C51.2123 157.879 51.2123 157.741 51.2123 157.604C51.2123 157.604 51.141 157.741 51.0696 157.879Z" fill="#444455"/>
<path d="M76.2588 156.021C75.9734 156.159 75.6879 156.296 75.4739 156.503L73.4045 157.879C71.6206 159.049 69.1231 160.632 66.2688 162.215C65.1984 162.835 64.128 163.385 63.2004 163.867L63.4858 164.005C62.915 161.733 62.3441 159.737 61.9873 158.361C61.7732 157.742 61.6305 157.191 61.4878 156.709C61.4165 156.503 61.3451 156.296 61.2737 156.159C61.2737 156.365 61.3451 156.572 61.3451 156.778C61.4165 157.191 61.5592 157.742 61.7019 158.43C62.0587 159.806 62.4868 161.802 63.129 164.073L63.2004 164.28L63.4145 164.211C64.4135 163.729 65.4838 163.179 66.5542 162.559C68.9803 161.183 71.3351 159.737 73.6186 158.155C74.4749 157.535 75.1884 157.053 75.6879 156.64C75.902 156.434 76.1161 156.227 76.2588 156.021Z" fill="#444455"/>
<path d="M52.7109 161.113C53.7099 161.871 54.7802 162.559 55.8506 163.178L55.9933 163.247L56.0647 163.109L57.0637 161.32C57.7773 159.943 58.4908 158.636 58.919 157.672C59.2044 157.191 59.4185 156.64 59.5612 156.089C59.2044 156.502 58.919 156.984 58.6335 157.535C58.134 158.429 57.4205 159.668 56.7069 161.113L55.7079 162.972L55.922 162.903C54.9943 162.215 53.924 161.664 52.7109 161.113Z" fill="#444455"/>
<path d="M57.4205 160.426C57.6345 160.632 57.8486 160.77 58.0627 160.907C58.4195 161.183 58.9903 161.596 59.6326 162.008C60.2748 162.421 60.8456 162.766 61.2024 163.041C61.4165 163.178 61.7019 163.316 61.916 163.454C61.7019 163.247 61.4878 163.11 61.2738 162.972C60.8456 162.697 60.3461 162.353 59.7039 161.94L58.134 160.907C57.92 160.701 57.6345 160.563 57.4205 160.426Z" fill="#444455"/>
<path d="M59.5612 161.871C60.0607 161.458 60.5602 161.045 60.9883 160.632C61.4165 160.219 61.8446 159.737 62.2728 159.256C61.7733 159.669 61.3451 160.081 60.917 160.494C60.4175 160.907 59.918 161.389 59.5612 161.871Z" fill="#444455"/>
<path d="M61.7019 204.198C60.9883 204.129 60.3461 204.06 59.6325 203.991C58.134 203.785 56.6355 203.441 55.2084 203.097L59.6325 166.689C59.7039 167.239 59.7752 167.859 59.8466 168.478C60.7029 176.186 61.2738 189.951 61.4878 196.627C61.6305 199.105 61.6305 201.651 61.7019 204.198Z" fill="white"/>
<path d="M59.8466 165.931C59.8466 165.931 59.8466 166.826 59.8466 168.409C59.7753 174.672 59.7039 191.396 59.6325 203.991C58.134 203.784 56.6355 203.44 55.2084 203.096C53.4958 202.614 51.9259 201.995 50.3561 201.307L57.0637 165.725H57.2064L59.5612 165.931H59.8466Z" fill="#000066"/>
<path d="M57.135 165.656C57.5632 165.793 57.9913 165.862 58.4908 165.862C58.9189 165.931 59.4184 165.931 59.8466 165.862C59.4184 165.793 58.9903 165.724 58.4908 165.724C58.0627 165.724 57.6345 165.656 57.135 165.656Z" fill="#444455"/>
<path opacity="0.3" d="M37.0836 164.004C37.9399 167.17 38.5821 170.405 38.8675 173.709C39.153 175.636 39.0816 177.632 38.5821 179.559C37.9399 181.417 36.5127 183.137 34.5861 183.688C35.5137 177.287 36.2987 170.887 36.9409 164.486L37.0836 164.004Z" fill="#444455"/>
<path opacity="0.3" d="M89.9594 191.603C89.8881 190.639 89.8167 189.676 89.7454 188.712L90.673 190.571C90.4589 190.915 90.2449 191.259 89.9594 191.603Z" fill="#444455"/>
<path fill-rule="evenodd" clip-rule="evenodd" d="M194.092 164.601H111.987V164.348H194.092V164.601Z" fill="white"/>
<path fill-rule="evenodd" clip-rule="evenodd" d="M194.092 172.717H111.987V172.463H194.092V172.717Z" fill="white"/>
<path fill-rule="evenodd" clip-rule="evenodd" d="M194.092 180.833H111.987V180.579H194.092V180.833Z" fill="white"/>
<path fill-rule="evenodd" clip-rule="evenodd" d="M148.934 188.949H111.987V188.695H148.934V188.949Z" fill="white"/>
<g filter="url(#filter1_d)">
<path d="M302.165 56.8118H139.387C138.551 56.8118 137.724 56.9808 136.951 57.3093C136.179 57.6377 135.478 58.1191 134.887 58.7259C134.296 59.3327 133.828 60.0531 133.508 60.8457C133.189 61.6384 133.025 62.4879 133.026 63.3455V115.149C133.025 116.007 133.189 116.856 133.508 117.649C133.828 118.441 134.296 119.162 134.887 119.769C135.478 120.375 136.179 120.857 136.951 121.185C137.724 121.514 138.551 121.683 139.387 121.683H151.517C152.492 127.091 153.633 133.913 153.633 133.913L164.607 121.683H302.165C303.001 121.683 303.829 121.514 304.601 121.185C305.373 120.857 306.075 120.375 306.666 119.769C307.257 119.162 307.725 118.441 308.044 117.649C308.363 116.856 308.527 116.007 308.526 115.149V63.3455C308.527 62.4879 308.363 61.6384 308.044 60.8457C307.725 60.0531 307.257 59.3327 306.666 58.7259C306.075 58.1191 305.373 57.6377 304.601 57.3093C303.829 56.9808 303.001 56.8118 302.165 56.8118Z" fill="#000066"/>
</g>
<path d="M285.547 59.3698C285.471 59.3698 285.319 59.2937 285.243 59.2176C284.712 58.9892 284.18 58.7609 283.649 58.5325C282.51 58.0757 281.371 57.6951 280.232 57.3906C278.562 56.9339 276.74 56.6294 274.994 56.401C274.842 56.401 274.766 56.401 274.614 56.401C273.551 56.3249 272.412 56.2488 271.35 56.2488C271.046 56.2488 270.742 56.2488 270.439 56.2488C266.718 56.3249 263.15 57.01 259.81 58.228C259.126 58.4564 258.519 58.6847 257.836 58.9892C256.317 59.6743 254.799 60.4356 253.432 61.2729C253.356 61.3491 253.28 61.3491 253.204 61.4252C253.128 61.5013 253.052 61.5013 252.977 61.5774C250.927 62.8715 249.029 64.4701 247.358 66.1448C246.523 67.0583 245.764 67.9718 245.005 68.8853C244.777 69.1898 244.549 69.4181 244.397 69.7226C244.018 70.2555 243.638 70.7884 243.259 71.3974C240.222 76.1931 238.476 81.7501 238.476 87.6878C238.476 90.7327 238.931 93.7015 239.766 96.5181C241.285 101.39 243.942 105.729 247.51 109.307C247.586 109.383 247.738 109.535 247.814 109.611C249.029 110.753 250.319 111.895 251.686 112.809C251.762 112.809 251.762 112.885 251.838 112.885C251.838 112.885 251.838 112.885 251.914 112.885C253.66 114.103 255.482 115.168 257.38 116.006C261.632 117.909 266.415 118.975 271.425 118.975C274.462 118.975 277.347 118.594 280.156 117.833C280.612 117.68 281.143 117.528 281.751 117.376C283.269 116.919 284.788 116.31 286.154 115.625C287.673 114.94 289.115 114.103 290.406 113.189C293.215 111.286 295.72 108.926 297.846 106.262C299.061 104.739 300.124 103.065 301.035 101.314C301.111 101.238 301.111 101.086 301.187 101.009C302.781 97.7361 303.844 94.1583 304.224 90.4282C304.3 89.4386 304.375 88.5251 304.375 87.5355C304.224 75.2035 296.556 64.4701 285.547 59.3698Z" fill="#F1F0F5"/>
<path d="M310.069 44.2971C309.842 44.6777 304.907 70.2552 304.907 70.2552L316.599 70.7881L321.154 48.7884L310.069 44.2971Z" fill="#444455"/>
<path d="M304.907 70.2558L303.616 69.7229L308.627 44.4499L310.221 44.3738L304.907 70.2558Z" fill="#444455"/>
<path d="M316.316 50.4379C316.24 50.7423 316.544 51.0467 316.848 51.1228C317.151 51.1989 317.455 50.8945 317.531 50.5901C317.607 50.2857 317.303 49.9813 316.999 49.9052C316.696 49.8291 316.392 50.0574 316.316 50.4379Z" fill="white"/>
<path d="M284.788 78.5534C284.636 78.6295 284.56 78.6295 284.408 78.7056C284.028 78.7817 283.649 78.8579 283.269 78.7817C282.662 78.7056 282.054 78.5534 281.447 78.2489C280.688 77.8683 280.08 77.2593 279.701 76.498C279.245 75.5846 279.093 74.5188 279.321 73.5292C279.473 72.9964 279.701 72.4635 280.005 72.0067C280.384 71.55 280.764 71.0933 281.295 70.7888C282.358 70.1037 283.345 69.3424 284.332 68.5051C285.243 67.5155 285.851 66.2975 286.002 65.0034C286.154 63.7093 286.078 62.3391 285.699 61.045C285.319 59.827 284.939 58.6851 284.408 57.5433C283.421 55.6402 282.662 53.661 282.13 51.5295C281.751 50.0832 281.751 48.6368 282.13 47.1905C282.282 46.6576 282.434 46.2009 282.738 45.7441C282.51 46.2009 282.358 46.7337 282.206 47.1905C281.903 48.5607 281.903 50.0832 282.282 51.4534C282.814 53.5087 283.649 55.4879 284.636 57.391C285.167 58.5329 285.623 59.7509 286.002 60.9688C286.382 62.2629 286.458 63.7093 286.306 65.0034C286.154 66.3736 285.547 67.6677 284.56 68.6573C283.573 69.4947 282.586 70.2559 281.523 70.941C280.612 71.55 279.929 72.5396 279.625 73.6053C279.397 74.5949 279.473 75.5846 279.929 76.4219C280.308 77.1831 280.84 77.716 281.523 78.1727C282.054 78.4772 282.662 78.6295 283.269 78.7056C283.801 78.7056 284.332 78.7056 284.788 78.5534Z" fill="#444455"/>
<path d="M317.206 67.8957L317.358 64.5463L312.347 62.4909L314.321 57.8474C315.232 55.7921 317.586 54.8786 319.636 55.7921C319.712 55.8682 319.863 55.8682 319.939 55.9443L321.989 57.0101C323.432 57.7713 324.419 59.1415 324.874 60.7401C325.406 63.4806 325.785 66.1449 326.013 68.9614L317.206 67.8957Z" fill="#B78876"/>
<path d="M325.406 68.6572L319.256 68.1244H319.18L317.662 67.9721H317.13L316.447 67.896L316.067 70.8648L312.651 98.8783V99.1066L312.271 98.726L303.92 90.6569L299.592 86.3179L291.924 78.9339C289.874 76.9547 287.293 75.5083 284.56 74.671L282.738 74.1381L281.675 73.8336H281.599L279.777 73.3008L279.549 73.2246L278.107 72.844L274.159 72.4634L266.87 71.7783L262.087 71.3216L261.328 71.7022L259.582 72.5395L258.519 73.0724L256.393 74.062L256.089 74.2142L252.976 75.7367L251.306 76.5741C251.306 76.5741 251.306 76.5741 251.306 76.6502C251.306 76.8024 251.306 77.2592 251.306 77.8682C251.306 78.7055 251.306 79.9235 251.306 81.3699V81.7505C251.306 82.1311 251.306 82.5117 251.306 82.8923C251.306 82.9684 251.306 83.0446 251.306 83.1207C251.382 87.7642 251.534 94.1586 252.141 100.096C252.141 100.172 252.141 100.248 252.141 100.401C252.369 102.304 252.521 104.207 252.825 105.958C252.825 106.186 252.976 106.491 253.052 106.871C253.052 107.023 253.128 107.1 253.204 107.252C253.204 107.328 253.28 107.404 253.28 107.48C253.508 108.165 253.888 108.85 254.191 109.688L254.267 109.916C255.102 111.819 256.241 114.103 257.228 116.234C261.48 118.137 266.263 119.203 271.274 119.203C274.31 119.203 277.195 118.823 280.005 118.061C280.46 117.909 280.992 117.757 281.599 117.605C283.117 117.148 284.636 116.539 286.002 115.854C287.521 115.169 288.963 114.331 290.254 113.418L290.558 101.314C290.558 100.934 290.558 100.629 290.558 100.248V99.7917L297.694 106.491L305.438 113.798C307.716 116.006 310.677 117.224 313.866 117.224C315.84 117.224 317.738 116.767 319.484 115.854C319.484 115.854 319.56 115.854 319.56 115.778C322.217 114.331 324.343 111.895 325.254 108.85L326.469 81.1415V81.0654L326.848 72.9963V72.7679L327 68.6572H325.406Z" fill="#FF9326"/>
<path d="M254.875 99.7155L254.647 100.553V100.629L253.128 106.871L253.052 107.176L251.686 112.961C250.319 111.971 249.029 110.906 247.814 109.764C247.738 109.688 247.586 109.535 247.51 109.459C243.942 105.805 241.285 101.466 239.766 96.5945C240.374 93.7018 240.905 91.0374 241.361 88.9821V88.906C241.664 87.4596 241.968 86.3178 242.196 85.5566C242.575 84.2625 243.259 83.0445 244.094 82.0549C244.17 81.9787 244.17 81.9026 244.246 81.8265C244.777 81.2175 245.308 80.6846 245.84 80.1518L245.916 80.0757C247.89 78.3248 250.016 77.183 251.23 76.6501C251.838 76.3456 252.217 76.1934 252.217 76.1934L252.369 77.4875L252.901 82.6639L252.977 83.1967L254.723 99.2588L254.875 99.7155Z" fill="#FF9326"/>
<path d="M251.762 113.113C251.838 112.885 251.914 112.656 251.989 112.428C252.141 111.971 252.293 111.362 252.521 110.525C252.976 108.926 253.508 106.719 254.039 104.207C254.571 101.695 255.026 99.487 255.33 97.8884C255.482 97.0511 255.558 96.4421 255.634 95.9854C255.71 95.757 255.71 95.5286 255.71 95.2241C255.634 95.4525 255.558 95.6809 255.482 95.9092C255.406 96.4421 255.254 97.0511 255.026 97.8123C254.647 99.487 254.191 101.695 253.66 104.131L252.217 110.449C252.065 111.21 251.914 111.819 251.762 112.352C251.762 112.656 251.762 112.885 251.762 113.113Z" fill="#444455"/>
<path d="M325.178 71.7021C325.406 71.1692 325.482 70.6363 325.482 70.1035C325.557 69.5706 325.557 69.0377 325.482 68.5049C325.254 69.0377 325.178 69.5706 325.178 70.1035C325.102 70.6363 325.102 71.1692 325.178 71.7021Z" fill="#444455"/>
<path d="M322.141 71.7777C322.369 71.2448 322.445 70.6358 322.369 70.1029C322.445 69.5701 322.445 68.9611 322.293 68.4282C322.065 68.9611 321.989 69.5701 322.065 70.1029C321.989 70.6358 321.989 71.2448 322.141 71.7777Z" fill="#444455"/>
<path d="M319.104 71.626C319.332 71.017 319.408 70.408 319.408 69.7229C319.484 69.1139 319.484 68.4288 319.332 67.8198C319.104 68.4288 319.028 69.0378 319.028 69.7229C318.952 70.3319 318.952 71.017 319.104 71.626Z" fill="#444455"/>
<path d="M313.258 103.826C313.334 102.913 313.258 101.999 313.106 101.086C313.106 100.172 312.955 99.2589 312.651 98.3455C312.575 99.2589 312.651 100.172 312.803 101.086C312.803 101.999 312.955 102.913 313.258 103.826Z" fill="#444455"/>
<path d="M245.84 80.0759C245.84 80.152 246.675 80.0759 247.966 80.3804C249.636 80.761 251.23 81.5223 252.521 82.6641C253.812 83.806 254.799 85.2523 255.406 86.927C255.862 88.145 255.937 89.0585 256.013 88.9824C256.013 88.754 256.013 88.6017 256.013 88.3734C255.937 87.8405 255.862 87.3076 255.71 86.7748C255.178 85.0239 254.191 83.5015 252.825 82.3596C251.458 81.1416 249.864 80.3804 248.042 80.0759C247.51 79.9998 246.979 79.9237 246.447 79.9998C246.219 79.9998 245.992 79.9998 245.84 80.0759Z" fill="#444455"/>
<path d="M288.887 108.318C288.812 108.318 289.191 107.328 289.571 105.73C290.558 101.543 290.33 97.1279 288.887 93.0172C288.356 91.4947 287.9 90.5051 287.9 90.5051C287.9 90.5051 288.052 90.7335 288.28 91.1141C288.584 91.7231 288.887 92.3321 289.115 92.9411C290.71 97.0517 290.937 101.543 289.798 105.806C289.647 106.415 289.419 107.1 289.191 107.709C289.191 107.861 289.039 108.09 288.887 108.318Z" fill="#444455"/>
<path d="M274.614 115.397C274.918 115.549 275.222 115.701 275.525 115.854C275.981 116.082 276.436 116.31 276.892 116.539C276.892 116.539 276.968 116.539 277.044 116.615C278.107 117.072 279.245 117.528 280.384 117.909C280.612 117.833 280.84 117.757 281.067 117.681C279.169 117.148 277.347 116.463 275.601 115.625C274.159 114.94 273.248 114.483 273.248 114.56L273.323 114.636C273.475 114.712 273.551 114.788 273.703 114.94C273.931 115.092 274.083 115.169 274.31 115.321C274.386 115.321 274.538 115.397 274.614 115.397Z" fill="#444455"/>
<path opacity="0.2" d="M274.614 115.397C275.373 115.854 276.133 116.234 276.892 116.539C276.892 116.539 276.968 116.539 277.044 116.615C278.182 117.072 279.397 117.452 280.612 117.833C280.916 117.757 281.295 117.681 281.675 117.604C283.193 117.148 284.712 116.539 286.078 115.854C284.939 115.092 283.649 114.636 282.282 114.712C280.612 114.712 278.942 115.016 277.271 115.016C275.601 115.016 273.627 114.864 272.412 113.722V113.798C272.716 114.027 273.02 114.331 273.399 114.56L273.475 114.636C273.627 114.712 273.703 114.788 273.855 114.94C274.083 115.092 274.234 115.169 274.462 115.321C274.386 115.321 274.538 115.397 274.614 115.397Z" fill="#444455"/>
<path opacity="0.2" d="M256.924 115.245C258.139 114.864 258.367 113.418 258.443 112.123C258.974 106.795 257.911 101.466 255.482 96.6704C254.875 100.172 253.963 103.826 253.204 107.404L256.924 115.245Z" fill="#444455"/>
<path d="M254.799 100.705C254.799 100.705 254.723 100.705 254.723 100.629C254.723 100.629 254.647 100.629 254.647 100.553L254.571 100.476C254.343 100.324 254.115 100.248 253.812 100.172C253.28 100.096 252.749 100.172 252.217 100.324C251.762 100.476 251.382 100.705 251.003 101.009C250.016 101.771 249.408 103.293 249.105 105.044C248.877 106.49 248.649 108.165 247.814 109.687C247.738 109.611 247.586 109.459 247.51 109.383C247.814 108.85 248.042 108.241 248.193 107.632C248.421 106.719 248.573 105.805 248.725 104.968C249.029 103.293 249.636 101.618 250.775 100.781C251.154 100.4 251.61 100.172 252.141 100.02C252.673 99.8675 253.28 99.8675 253.812 100.02C254.039 100.096 254.343 100.248 254.495 100.4C254.495 100.4 254.495 100.4 254.571 100.4C254.571 100.4 254.571 100.476 254.647 100.476L254.723 100.553C254.723 100.705 254.799 100.705 254.799 100.705Z" fill="white"/>
<path d="M299.896 86.0129C299.668 86.5457 299.289 87.0786 298.909 87.5353C297.77 88.8294 296.176 89.5907 294.506 89.8952C293.367 90.1235 292.152 89.9713 291.013 89.5907C289.798 89.0578 288.66 88.3727 287.597 87.4592C286.534 86.4696 285.395 85.6323 284.104 84.9471C283.421 84.6427 282.738 84.4143 281.978 84.3382C281.219 84.3382 280.46 84.4143 279.701 84.6427C278.258 85.1755 276.892 85.8606 275.601 86.7741C274.386 87.6115 273.172 88.3727 271.805 89.0578C270.59 89.5907 269.224 89.8952 267.933 89.8952C266.794 89.8952 265.579 89.6668 264.517 89.2862C262.922 88.7533 261.48 87.8398 260.341 86.6219C260.037 86.3174 259.733 85.9368 259.506 85.5561C259.43 85.4039 259.354 85.3278 259.278 85.1755C259.278 85.1755 259.658 85.7084 260.493 86.5457C261.632 87.6876 263.074 88.6011 264.668 89.0578C267.022 89.8191 269.527 89.7429 271.805 88.7533C273.096 88.0682 274.31 87.307 275.525 86.4696C276.816 85.5561 278.182 84.7949 279.701 84.262C280.46 84.0337 281.295 83.8814 282.13 83.9575C282.89 84.0337 283.725 84.262 284.408 84.5665C285.699 85.3278 286.913 86.1651 287.976 87.1547C288.963 88.0682 290.026 88.7533 291.241 89.2101C292.304 89.5907 293.443 89.6668 294.581 89.5146C296.252 89.2862 297.694 88.525 298.909 87.307C299.137 86.9264 299.516 86.4696 299.896 86.0129Z" fill="white"/>
<path d="M319.56 116.158C319.408 115.701 319.332 115.245 319.256 114.788C319.028 113.494 318.725 112.276 318.193 111.058C317.814 110.22 317.358 109.459 316.751 108.85C316.067 108.089 315.232 107.556 314.245 107.175C313.182 106.871 312.044 106.795 310.905 106.871C309.69 106.947 308.399 106.871 307.185 106.566C305.97 106.186 304.831 105.577 303.92 104.663C303.009 103.902 302.25 102.989 301.49 102.227C300.048 100.629 298.454 99.3347 296.935 98.9541C295.72 98.6496 294.354 98.8018 293.291 99.4869C292.911 99.7914 292.608 100.096 292.304 100.477C292.38 100.324 292.38 100.248 292.456 100.172C292.684 99.8676 292.911 99.6392 293.215 99.4108C294.354 98.6496 295.72 98.4212 297.011 98.7257C298.681 99.1063 300.276 100.4 301.794 101.999C302.553 102.76 303.313 103.674 304.224 104.435C305.135 105.272 306.198 105.881 307.336 106.186C309.69 106.795 312.195 106.11 314.397 106.795C315.384 107.175 316.295 107.784 316.978 108.546C317.586 109.231 318.041 109.992 318.421 110.905C318.876 112.123 319.256 113.418 319.408 114.712C319.484 115.168 319.56 115.549 319.56 115.777C319.56 115.93 319.56 116.006 319.56 116.158Z" fill="white"/>
<path d="M289.874 104.587C289.798 104.663 289.647 104.663 289.495 104.663C289.115 104.663 288.735 104.663 288.356 104.663C286.989 104.359 285.699 103.902 284.484 103.217C283.649 102.836 282.738 102.456 281.827 102.227C280.764 101.923 279.701 101.923 278.638 102.151C276.436 102.608 274.234 104.054 272.336 105.805C270.438 107.556 268.768 109.611 266.946 110.981C265.352 112.276 263.378 113.189 261.328 113.493C259.961 113.722 258.595 113.722 257.228 113.417C256.848 113.341 256.469 113.265 256.165 113.113C256.013 113.113 255.937 113.037 255.786 112.961C255.786 112.961 256.317 113.113 257.304 113.265C260.72 113.798 264.137 112.808 266.794 110.677C268.616 109.231 270.211 107.327 272.185 105.501C274.159 103.674 276.36 102.227 278.638 101.77C279.701 101.542 280.84 101.618 281.978 101.923C282.89 102.227 283.801 102.532 284.636 102.988C285.85 103.674 287.141 104.206 288.432 104.511C288.887 104.587 289.419 104.587 289.874 104.587Z" fill="white"/>
<path d="M241.133 88.7535C241.133 88.7535 241.285 88.8296 241.588 88.9057C242.044 88.9818 242.499 88.9818 242.955 88.7535C243.562 88.449 244.17 87.9922 244.549 87.3832C245.081 86.622 245.612 85.9369 246.22 85.2518C247.434 84.1099 248.877 83.2726 250.547 82.8919C251.003 82.8158 251.534 82.7397 252.065 82.6636C252.445 82.6636 252.597 82.6636 252.597 82.7397C252.597 82.8158 251.838 82.8158 250.623 83.1203C249.105 83.5771 247.662 84.3383 246.523 85.4801C245.916 86.1653 245.384 86.8504 244.853 87.5355C244.397 88.1445 243.79 88.6012 243.031 88.9057C242.575 89.058 241.968 89.058 241.512 88.9057C241.209 88.9057 241.133 88.7535 241.133 88.7535Z" fill="white"/>
<path d="M281.751 73.7576C281.751 73.7576 281.523 74.2143 280.916 74.7472C280.08 75.4323 279.093 75.9651 278.107 76.1935C277.044 76.498 275.981 76.498 274.918 76.2696C274.462 76.1935 274.083 76.0413 273.703 75.8129C274.159 75.8129 274.538 75.889 274.994 75.9651C275.981 76.0413 277.044 76.0413 278.031 75.7368C279.018 75.5084 279.929 75.0517 280.764 74.4427C280.992 74.2143 281.371 73.9859 281.751 73.7576Z" fill="white"/>
<path opacity="0.3" d="M312.423 98.5734C311.057 100.248 310.525 102.456 311.057 104.511C311.132 104.892 311.284 105.196 311.664 105.348C311.968 105.425 312.271 105.272 312.423 105.044C312.575 104.816 312.727 104.587 312.727 104.283C313.182 102.38 313.106 100.324 312.651 98.4211L312.423 98.5734Z" fill="#444455"/>
<path d="M282.448 72.94C282.384 73.149 282.328 73.331 282.281 73.48L281.22 73.214L279.701 72.8334L279.674 72.8265L279.646 72.8228L279.58 73.3183L279.646 72.8228L279.646 72.8227L279.646 72.8227L279.644 72.8224L279.636 72.8214L279.607 72.8176L279.495 72.8025L279.077 72.7466L277.653 72.5563L274.386 72.1195V69.135C274.468 69.11 274.56 69.08 274.662 69.0444C275.061 68.9046 275.605 68.6765 276.187 68.3213C277.352 67.61 278.686 66.379 279.3 64.3269C279.306 64.3072 279.312 64.2872 279.318 64.2667C279.836 62.5371 281.188 58.0246 280.103 45.3986L282.44 43.7815C281.243 48.1117 281.31 52.6523 282.638 57.0005C282.846 57.7203 283.09 58.4338 283.33 59.1325L283.345 59.1789C283.592 59.8979 283.832 60.6016 284.031 61.3052C284.431 62.7118 284.657 64.0778 284.445 65.4596C284.261 66.6403 283.691 68.7445 283.156 70.5816C282.89 71.4941 282.636 72.3311 282.448 72.94Z" fill="#444455" stroke="#444455"/>
<path d="M326.137 81.0254C325.421 81.6958 324.848 82.4406 324.346 83.26C323.845 84.1538 323.415 85.1221 323.057 86.1649C322.627 87.2822 322.269 88.5485 321.696 89.8892C321.195 91.1555 320.407 92.2727 319.476 93.1666C318.688 93.9114 317.685 94.3583 316.611 94.5073C315.894 94.5818 315.178 94.5073 314.533 94.2094C314.39 94.1349 314.175 93.9859 314.032 93.9114C313.889 93.8369 313.889 93.7624 313.889 93.7624C313.889 93.7624 314.104 93.9114 314.605 94.0604C315.25 94.2839 315.966 94.3583 316.611 94.2094C317.613 94.0604 318.545 93.539 319.332 92.8686C320.264 91.9748 320.98 90.932 321.481 89.7402C322.054 88.474 322.412 87.2077 322.914 86.0904C323.272 85.0476 323.773 84.0793 324.346 83.1855C324.705 82.5896 325.206 81.9937 325.707 81.5468C325.779 81.3233 325.922 81.1744 326.137 81.0254Z" fill="white"/>
<path d="M326.72 72.803C326.366 73.2542 325.94 73.6302 325.444 73.9311C323.174 75.5104 320.407 76.112 317.782 75.5104C317.215 75.4352 316.718 75.2096 316.222 74.9087C316.222 74.8335 316.86 75.0592 317.853 75.2096C320.478 75.5856 323.103 75.0592 325.373 73.6302C326.224 73.2542 326.72 72.803 326.72 72.803Z" fill="white"/>
<path d="M252.933 47.0934L253.06 47.2152L253.235 47.2311L253.55 47.2598C252.83 52.6622 252.401 58.0717 252.401 63.5565C252.401 65.1407 252.325 66.7127 252.102 68.2021L252.102 68.2056C251.889 69.6994 251.255 71.0398 250.205 72.0979C249.669 72.5641 249.004 72.8968 248.348 73.0333C247.76 73.0843 247.11 72.8469 246.694 72.3872C246.362 71.865 246.393 71.2193 246.748 70.8125L246.177 70.0231C244.781 70.6124 243.32 70.9771 241.868 71.05C240.465 71.1169 239.189 70.4549 238.369 69.3048C238.064 68.7391 237.986 68.0418 238.136 67.4236C238.287 66.8005 238.656 66.3026 239.201 66.0724L239.216 66.0661L239.231 66.0588C239.309 66.0198 239.393 65.9839 239.497 65.94C239.521 65.9296 239.547 65.9189 239.573 65.9075C239.703 65.8523 239.856 65.7847 240 65.7008C240.282 65.5357 240.646 65.2328 240.646 64.6983C240.646 64.3189 240.45 64.0398 240.236 63.8546C240.031 63.6764 239.781 63.5564 239.573 63.473L239.554 63.4654L239.534 63.4593C238.673 63.1937 238.001 62.6647 237.447 61.9058C237.047 61.2623 237.104 60.3868 237.616 59.7991C237.895 59.5557 238.286 59.4678 238.841 59.4409C239.016 59.4324 239.18 59.4303 239.355 59.4279C239.473 59.4264 239.596 59.4248 239.73 59.4211C240.04 59.4125 240.373 59.3926 240.7 59.327L240.711 59.3247L240.723 59.3218C242.409 58.8991 243.76 57.6303 244.268 55.9387C244.734 54.4588 245.044 52.9036 245.199 51.3502L245.2 51.3379L245.2 51.3255C245.27 49.9257 245.828 48.5088 246.675 47.3652L246.763 47.2766L246.877 47.1624L246.877 47.1624L246.884 47.1551C248.507 45.4604 251.226 45.45 252.933 47.0934Z" fill="#444455" stroke="#444455"/>
<path d="M269.376 35.9238C275.525 36.2283 280.384 41.3286 280.384 47.4946C280.384 52.2904 280.308 57.4668 280.005 60.5878C279.321 67.7434 273.931 68.9614 273.931 68.9614C273.931 68.9614 274.083 73.4527 274.31 77.6395C274.538 81.674 271.274 85.2519 266.946 85.5564C262.694 85.937 259.05 82.9682 258.747 79.0097L257.304 48.0275C257 41.6331 261.935 36.2283 268.313 35.9238C268.692 35.9238 269.072 35.9238 269.376 35.9238Z" fill="#B78876"/>
<path d="M278.79 50.6158C278.866 51.1485 278.486 51.529 277.955 51.6051C277.499 51.6812 277.044 51.3768 276.968 50.8441C276.968 50.3113 277.271 49.9308 277.803 49.8547C278.258 49.8547 278.714 50.1591 278.79 50.6158Z" fill="#444455"/>
<path d="M278.714 49.245C278.638 49.3972 277.879 48.8645 276.892 48.9406C275.905 49.0167 275.221 49.5494 275.146 49.3972C275.07 49.245 275.221 49.0928 275.525 48.8645C275.905 48.5601 276.436 48.3318 276.968 48.3318C277.499 48.3318 277.955 48.4079 278.41 48.7123C278.714 48.9406 278.79 49.1689 278.714 49.245Z" fill="#444455"/>
<path d="M268.54 51.224C268.54 51.6806 268.237 52.1372 267.705 52.2133C267.25 52.2894 266.794 51.9089 266.718 51.4523C266.718 50.9957 267.022 50.5391 267.553 50.463C268.085 50.3869 268.465 50.6913 268.54 51.224C268.54 51.1479 268.54 51.1479 268.54 51.224Z" fill="#444455"/>
<path d="M268.54 50.2343C268.464 50.3865 267.705 49.8538 266.718 49.9299C265.731 50.006 265.048 50.5387 264.896 50.3865C264.744 50.2343 264.972 50.0821 265.276 49.8538C265.655 49.5494 266.187 49.321 266.718 49.321C267.25 49.321 267.705 49.3971 268.161 49.7016C268.464 49.9299 268.616 50.1582 268.54 50.2343Z" fill="#444455"/>
<path d="M272.564 57.3144C273.096 57.086 273.627 57.0099 274.159 56.9337C274.386 56.9337 274.614 56.8576 274.69 56.6292C274.69 56.3248 274.614 56.0964 274.462 55.868L273.627 53.9649C272.868 52.3663 272.185 50.7677 271.653 49.093C272.564 50.6155 273.323 52.2141 274.007 53.8127C274.31 54.4978 274.538 55.1068 274.842 55.7158C274.994 56.0203 275.07 56.3248 275.07 56.7054C274.994 56.8576 274.842 57.0099 274.69 57.086C274.538 57.1621 274.386 57.1621 274.31 57.1621C273.627 57.2382 273.096 57.3144 272.564 57.3144Z" fill="#444455"/>
<path d="M273.931 69.0375C270.59 69.1897 267.25 68.4285 264.213 66.906C264.213 66.906 266.87 72.0063 274.007 71.0928L273.931 69.0375Z" fill="#995037"/>
<path d="M265.352 47.4942C265.428 47.6464 266.187 47.342 267.098 47.1898C268.009 47.0376 268.768 46.9615 268.768 46.7332C268.768 46.5049 267.933 46.2005 266.946 46.4288C265.959 46.6571 265.2 47.342 265.352 47.4942Z" fill="#444455"/>
<path d="M274.994 45.6672C275.07 45.8955 275.829 45.8194 276.816 45.8955C277.803 45.9716 278.562 45.9716 278.638 45.7433C278.714 45.515 277.879 45.1345 276.816 45.1345C275.753 45.1345 274.994 45.515 274.994 45.6672Z" fill="#444455"/>
<path d="M258.556 56.7032L258.557 56.7136L258.559 56.724C258.69 57.4009 258.973 57.9431 259.288 58.4245C259.441 58.6581 259.605 58.8825 259.763 59.0971L259.772 59.1098C259.934 59.3316 260.09 59.5444 260.236 59.7673C260.524 60.2081 260.766 60.6748 260.902 61.2504C261.037 61.826 261.072 62.5373 260.911 63.4707C260.644 64.989 260.225 66.9059 259.817 68.7718C259.706 69.2759 259.597 69.7762 259.492 70.2639C259.245 71.4061 259.02 72.4793 258.862 73.3592C258.748 73.9897 258.663 74.5528 258.634 74.9777C258.42 75.0401 258.117 75.1287 257.748 75.2377C256.99 75.4617 255.954 75.7715 254.841 76.1148C252.628 76.7975 250.074 77.6244 248.828 78.171L248.808 78.1795L248.79 78.1895C247.802 78.7258 246.838 79.3272 245.909 79.9699C246.274 79.3682 246.663 78.6843 247.035 77.9515C247.676 76.6903 248.276 75.2696 248.612 73.8651C248.947 72.4669 249.033 71.0351 248.589 69.7836C247.024 65.3746 247.691 62.2338 249.713 60.6795L249.713 60.6797L249.723 60.6713C251.516 59.2166 251.733 56.9412 251.576 55.2878L251.576 55.2878L251.575 55.2785C251.277 52.6629 251.351 49.9664 251.725 47.2628C252.329 43.4051 253.452 39.3233 255.726 36.3816L255.727 36.3802C257.206 34.4515 259.294 32.6027 261.549 31.4906C263.804 30.3783 266.164 30.0304 268.256 30.9734C268.931 31.2872 269.483 31.4934 269.983 31.6803C271.148 32.1153 272.032 32.4453 273.521 33.7834L273.648 33.8975L273.818 33.9102L273.855 33.4115L273.818 33.9102L273.818 33.9102L273.818 33.9102L273.819 33.9103L273.824 33.9106L273.841 33.9119L273.907 33.9169C273.964 33.9213 274.048 33.9278 274.152 33.9361C274.36 33.9527 274.648 33.9764 274.969 34.0047C275.612 34.0617 276.375 34.1365 276.892 34.2103C278.59 34.4899 280.005 35.538 281.062 36.8967C282.121 38.2582 282.789 39.8923 283.003 41.2536C283.516 44.5219 282.879 46.5926 282.063 48.423C281.894 48.8008 281.714 49.1752 281.532 49.5529C281.248 50.141 280.961 50.737 280.709 51.3653C280.652 50.7284 280.585 50.0294 280.511 49.3084C280.373 47.9633 280.209 46.5374 280.026 45.2926C279.845 44.0606 279.64 42.9663 279.415 42.3081L279.411 42.2982L279.407 42.2885C278.684 40.4337 277.316 38.8175 275.537 37.8448L275.406 37.7727L275.256 37.7852C273.785 37.9081 272.731 38.4095 271.931 39.2766C271.153 40.1197 270.652 41.2717 270.193 42.613C270.082 42.9373 269.979 43.2495 269.879 43.5506C269.14 45.7776 268.604 47.3943 266.797 48.7695C266.329 49.1177 265.887 49.526 265.466 49.9155C265.403 49.9735 265.341 50.0311 265.279 50.0881C264.791 50.5373 264.321 50.9528 263.811 51.279C263.306 51.6016 262.774 51.8293 262.167 51.9059C261.561 51.9824 260.849 51.9119 259.982 51.5926L259.553 51.4344L259.357 51.8482C258.639 53.3682 258.311 55.0667 258.556 56.7032Z" fill="#444455" stroke="#444455"/>
<path d="M271.35 59.5982C270.97 59.2177 270.514 59.0655 269.983 59.1416C269.603 59.2177 269.3 59.446 269.072 59.7504C268.844 60.0548 268.844 60.4353 269.072 60.7397C269.376 61.0441 269.755 61.1202 270.135 60.968C270.514 60.8158 270.818 60.5875 271.122 60.2831C271.198 60.207 271.274 60.1309 271.35 60.0548C271.501 59.8265 271.501 59.7504 271.35 59.5982Z" fill="#995037"/>
<path d="M269.224 58.3801C269.376 58.3801 269.452 59.2175 270.211 59.8265C270.97 60.4355 271.957 60.2071 271.957 60.3593C271.957 60.5116 271.729 60.5877 271.35 60.5877C270.818 60.6638 270.287 60.5116 269.907 60.2071C269.528 59.9026 269.224 59.4459 269.148 58.9891C269.072 58.6085 269.148 58.3801 269.224 58.3801Z" fill="#444455"/>
<path d="M238.248 56.4009C238.248 56.7054 238.248 57.086 238.324 57.3905C238.4 57.7711 238.551 58.1517 238.703 58.4562C238.931 58.913 239.311 59.2936 239.766 59.5219C240.298 59.8264 240.981 59.8264 241.512 59.5981C242.12 59.2936 242.575 58.6846 242.651 57.9995C242.803 57.2382 242.803 56.4009 242.803 55.6397C242.803 54.8023 242.727 53.9649 242.727 53.0515C242.651 51.3767 242.955 49.702 243.714 48.1795C244.322 46.8854 245.384 45.972 246.751 45.5913C247.662 45.363 248.573 45.4391 249.484 45.8197C249.788 45.972 250.016 46.2003 250.243 46.4287C250.016 46.2003 249.712 46.0481 249.408 45.8958C248.573 45.5152 247.662 45.5152 246.751 45.7436C245.46 46.1242 244.397 47.1138 243.866 48.3318C243.183 49.8543 242.879 51.4529 242.955 53.1276C242.955 54.0411 243.031 54.8784 243.031 55.7158C243.107 56.5531 243.031 57.3144 242.879 58.1517C242.727 58.913 242.272 59.5219 241.588 59.9026C240.981 60.1309 240.298 60.1309 239.69 59.8264C239.235 59.5981 238.855 59.2175 238.551 58.6846C238.4 58.304 238.248 57.9234 238.172 57.5427C238.172 57.0099 238.172 56.7054 238.248 56.4009Z" fill="#444455"/>
<path d="M248.725 71.7779C248.573 71.7018 248.421 71.5495 248.345 71.3973C248.042 71.0167 247.89 70.4838 247.814 69.9509C247.738 69.1136 247.89 68.3523 248.193 67.5911C248.725 66.6776 249.332 65.8403 250.167 65.079C251.154 64.2417 251.989 63.3282 252.749 62.2624C253.508 61.0445 253.812 59.522 253.66 58.0757C253.432 56.4771 253.356 54.8023 253.28 53.2038C253.28 52.2903 253.508 51.4529 253.888 50.6917C254.267 49.8543 254.95 49.1692 255.71 48.7886C257.304 47.8751 259.126 47.6467 260.569 46.8094C261.935 45.972 263.074 44.754 263.681 43.3077C264.365 41.9375 264.896 40.5673 265.503 39.2732C266.035 38.0552 266.87 37.0656 267.857 36.2282C268.692 35.5431 269.755 35.1625 270.818 35.2386C271.729 35.3147 272.488 35.6192 273.096 36.1521C273.475 36.4566 273.779 36.9133 273.931 37.3701C274.007 37.5223 274.007 37.5984 274.007 37.7507C274.007 37.8268 274.007 37.9029 274.007 37.9029C274.007 37.9029 274.007 37.7507 273.855 37.3701C273.703 36.9133 273.399 36.4566 273.02 36.1521C272.412 35.6192 271.653 35.3909 270.894 35.3147C269.831 35.3147 268.844 35.6954 268.009 36.3805C267.022 37.2178 266.263 38.2074 265.655 39.3493C265.048 40.5673 264.517 41.9375 263.833 43.3838C263.15 44.9063 262.011 46.2004 260.645 47.0377C259.126 47.8751 257.38 48.1035 255.786 49.017C255.026 49.3976 254.419 50.0827 254.039 50.8439C253.66 51.6052 253.508 52.4425 253.432 53.2799C253.432 54.8785 253.584 56.5532 253.812 58.1518C253.963 59.6742 253.66 61.1206 252.901 62.4147C252.141 63.4804 251.23 64.3939 250.243 65.2313C249.484 65.9164 248.801 66.7537 248.269 67.6672C247.89 68.3523 247.738 69.1897 247.814 69.9509C247.966 70.636 248.193 71.3211 248.725 71.7779Z" fill="white"/>
<path d="M250.623 50.2345C249.94 48.7882 250.319 46.9612 251.534 45.8955C251.23 46.5806 251.002 47.2657 250.775 48.027C250.623 48.7121 250.623 49.4733 250.623 50.2345Z" fill="white"/>
<path d="M255.69 82.9516L255.69 82.9516L255.685 82.9424C253.781 79.7117 253.041 75.9708 253.538 72.2985L254.267 70.6901L254.315 70.5844L254.311 70.4685C254.239 68.0822 255.106 65.7119 256.815 64.0692L256.815 64.0693L256.823 64.0617C257.322 63.5609 257.861 63.1651 258.511 62.9695C259.109 62.7894 259.767 62.9069 260.244 63.2531C260.421 63.4215 260.615 63.5252 260.826 63.5548C260.803 64.4619 260.602 66.5531 260.528 67.298C260.055 70.2481 260.852 73.2759 262.682 75.5896L262.688 75.5971L262.694 75.6043C263.128 76.1125 263.48 76.6083 263.76 77.1666C263.964 77.6364 263.878 78.1003 263.561 78.4939C263.345 78.6482 263.055 78.6883 262.677 78.6064C262.274 78.5193 261.837 78.3056 261.445 78.0551L260.676 77.5645V78.4766C260.676 79.63 261.392 80.5427 262.001 81.3017C262.025 81.3312 262.048 81.3605 262.072 81.3897C262.693 82.163 263.212 82.8084 263.337 83.5664C263.459 84.7808 262.758 85.8495 261.692 86.2266C260.563 86.6264 259.284 86.4304 258.265 85.7494C257.193 85.0328 256.336 84.1023 255.69 82.9516ZM261.31 63.4973C261.309 63.4974 261.306 63.4984 261.3 63.4996C261.307 63.4977 261.31 63.4971 261.31 63.4973ZM260.82 63.2167C260.819 63.2127 260.818 63.2104 260.818 63.2103C260.819 63.2102 260.819 63.2122 260.82 63.2167Z" fill="#444455" stroke="#444455"/>
<path d="M247.586 75.8886C247.206 76.1169 246.827 76.2692 246.447 76.2692C245.992 76.2692 245.536 76.1169 245.081 75.8124C244.549 75.4318 244.246 74.899 244.094 74.29C243.942 73.5287 243.942 72.7675 244.094 72.0063C244.246 71.1689 244.549 70.3316 244.853 69.4181C245.233 68.4285 245.308 67.4389 245.157 66.3731C245.005 65.2313 244.246 64.3939 243.942 63.3282C243.638 62.3386 243.714 61.2729 244.17 60.3594C244.625 59.522 245.308 58.8369 246.219 58.4563C246.675 58.304 247.131 58.0757 247.51 57.8473C247.966 57.6189 248.269 57.3144 248.573 56.9338C248.953 56.1726 249.105 55.3352 249.029 54.574C248.953 53.965 249.029 53.2799 249.105 52.6709C249.18 52.2142 249.408 51.7574 249.712 51.3768C249.94 51.0723 250.319 50.8439 250.775 50.7678C250.699 50.7678 250.547 50.7678 250.471 50.7678C250.167 50.8439 249.864 50.9962 249.636 51.3007C249.332 51.6813 249.105 52.138 248.953 52.6709C248.801 53.1276 248.725 53.8128 248.801 54.4217C248.877 55.183 248.725 55.9442 248.345 56.6293C247.89 57.3144 247.055 57.6189 246.144 57.9996C245.157 58.3802 244.321 59.1414 243.866 60.0549C243.334 61.0445 243.259 62.2625 243.638 63.4043C244.018 64.47 244.701 65.3835 244.853 66.3731C245.005 67.3627 244.853 68.3523 244.549 69.2658C244.246 70.1793 243.942 71.0928 243.79 71.9301C243.638 72.7675 243.638 73.6049 243.866 74.3661C244.018 75.0512 244.473 75.5841 245.005 76.0408C245.46 76.3453 245.916 76.4976 246.447 76.4214C246.751 76.4214 247.055 76.2692 247.358 76.1169C247.434 76.0408 247.51 75.9647 247.586 75.8886Z" fill="white"/>
<path d="M256.089 45.5914C256.317 45.0585 256.545 44.6017 256.924 44.145C257.684 43.0793 258.595 42.0897 259.658 41.1762C260.645 40.2627 261.783 39.5776 262.998 38.9686C263.454 38.6641 263.985 38.5119 264.517 38.3596C262.922 39.2731 261.328 40.3388 259.885 41.4807C258.443 42.7748 257.228 44.145 256.089 45.5914Z" fill="white"/>
<path d="M254.647 45.6676C254.647 44.9825 254.723 44.3735 254.875 43.7645C255.254 42.242 255.862 40.7957 256.621 39.4255C257.456 38.0552 258.443 36.8373 259.582 35.8477C260.037 35.3909 260.569 35.0103 261.176 34.7058C259.582 36.1522 258.139 37.8269 256.924 39.6538C255.937 41.4808 255.102 43.5361 254.647 45.6676Z" fill="white"/>
<path d="M258.291 77.5632C258.063 77.411 257.835 77.1826 257.684 76.9543C257.152 76.3453 256.697 75.6602 256.393 74.975C256.165 74.4422 256.089 73.9093 256.089 73.3003C256.089 72.6152 256.317 72.0062 256.773 71.4734C257.228 70.9405 257.911 70.636 258.367 70.1031C258.746 69.5703 258.898 68.809 258.671 68.1239C258.519 67.4388 258.215 66.7537 257.835 66.1447C257.456 65.5357 257.228 64.8506 257.076 64.1655C256.924 63.4804 257.076 62.7953 257.456 62.2624C257.76 61.8057 258.139 61.4251 258.595 61.0444C259.202 60.5877 259.658 59.9026 259.885 59.2175C259.961 58.913 259.961 58.6846 259.885 58.3801C259.885 58.3801 259.961 58.4562 260.037 58.6085C260.113 58.8369 260.113 59.0652 260.113 59.2936C259.961 60.131 259.506 60.8161 258.822 61.3489C258.443 61.7296 258.063 62.1102 257.76 62.5669C257.456 63.0998 257.304 63.6326 257.456 64.2416C257.608 64.9267 257.835 65.5357 258.215 66.1447C258.595 66.8298 258.898 67.5149 259.126 68.2762C259.354 69.0374 259.202 69.8748 258.746 70.5599C258.215 71.1689 257.532 71.3972 257.152 71.9301C256.621 72.1585 256.393 72.6913 256.393 73.3003C256.393 73.8332 256.469 74.3661 256.621 74.8228C256.924 75.5079 257.304 76.193 257.835 76.802C257.987 77.0304 258.139 77.3349 258.291 77.5632Z" fill="#444455"/>
<path d="M279.473 70.9402C279.473 70.9402 279.549 71.1686 279.929 71.3208C280.46 71.5492 281.067 71.397 281.371 70.9402C281.751 70.179 281.751 69.2655 281.219 68.5804C280.764 67.743 279.929 66.9057 279.701 65.6116C279.549 65.0026 279.701 64.3175 280.156 63.8607C280.536 63.404 280.992 63.0995 281.219 62.7189C281.675 62.0338 281.903 61.1203 281.751 60.2829C281.675 59.6739 281.523 59.1411 281.295 58.5321C281.219 58.3037 281.143 58.0753 281.143 57.9231C281.143 57.9231 281.295 58.1515 281.447 58.5321C281.675 59.065 281.903 59.6739 282.054 60.2829C282.282 61.1964 282.054 62.186 281.523 62.9472C281.219 63.404 280.764 63.7085 280.46 64.0891C280.156 64.4697 280.005 65.0026 280.156 65.5354C280.308 66.6012 281.143 67.4385 281.599 68.4281C282.13 69.2655 282.13 70.3312 281.599 71.1686C281.371 71.4731 280.992 71.6253 280.612 71.7014C280.308 71.7014 280.081 71.7014 279.777 71.5492C279.473 71.1686 279.473 70.9402 279.473 70.9402Z" fill="#444455"/>
<path fill-rule="evenodd" clip-rule="evenodd" d="M227.96 76.3405H145.855V76.0869H227.96V76.3405Z" fill="white"/>
<path fill-rule="evenodd" clip-rule="evenodd" d="M227.96 84.4565H145.855V84.2029H227.96V84.4565Z" fill="white"/>
<path fill-rule="evenodd" clip-rule="evenodd" d="M227.96 92.5725H145.855V92.3188H227.96V92.5725Z" fill="white"/>
<path fill-rule="evenodd" clip-rule="evenodd" d="M182.803 100.689H145.855V100.435H182.803V100.689Z" fill="white"/>
<defs>
<filter id="filter0_d" x="0.394745" y="131.087" width="241.658" height="134.565" filterUnits="userSpaceOnUse" color-interpolation-filters="sRGB">
<feFlood flood-opacity="0" result="BackgroundImageFix"/>
<feColorMatrix in="SourceAlpha" type="matrix" values="0 0 0 0 0 0 0 0 0 0 0 0 0 0 0 0 0 0 127 0"/>
<feMorphology radius="10" operator="erode" in="SourceAlpha" result="effect1_dropShadow"/>
<feOffset dy="15"/>
<feGaussianBlur stdDeviation="20"/>
<feColorMatrix type="matrix" values="0 0 0 0 0.768627 0 0 0 0 0.768627 0 0 0 0 0.811765 0 0 0 0.5 0"/>
<feBlend mode="normal" in2="BackgroundImageFix" result="effect1_dropShadow"/>
<feBlend mode="normal" in="SourceGraphic" in2="effect1_dropShadow" result="shape"/>
</filter>
<filter id="filter1_d" x="103.026" y="41.8118" width="235.5" height="137.101" filterUnits="userSpaceOnUse" color-interpolation-filters="sRGB">
<feFlood flood-opacity="0" result="BackgroundImageFix"/>
<feColorMatrix in="SourceAlpha" type="matrix" values="0 0 0 0 0 0 0 0 0 0 0 0 0 0 0 0 0 0 127 0"/>
<feMorphology radius="10" operator="erode" in="SourceAlpha" result="effect1_dropShadow"/>
<feOffset dy="15"/>
<feGaussianBlur stdDeviation="20"/>
<feColorMatrix type="matrix" values="0 0 0 0 0.768627 0 0 0 0 0.768627 0 0 0 0 0.811765 0 0 0 0.5 0"/>
<feBlend mode="normal" in2="BackgroundImageFix" result="effect1_dropShadow"/>
<feBlend mode="normal" in="SourceGraphic" in2="effect1_dropShadow" result="shape"/>
</filter>
</defs>
</svg>
