<svg width="16" height="16" viewBox="0 0 16 16" fill="none" xmlns="http://www.w3.org/2000/svg">
<path d="M10.7754 5.05261C12.1611 5.05261 13.4899 5.58494 14.4697 6.53249C15.4495 7.48005 15.9999 8.7652 15.9999 10.1052V16H12.5169V10.1052C12.5169 9.65856 12.3335 9.23018 12.0069 8.91433C11.6803 8.59848 11.2373 8.42103 10.7754 8.42103C10.3136 8.42103 9.87061 8.59848 9.54401 8.91433C9.21742 9.23018 9.03394 9.65856 9.03394 10.1052V16H5.55094V10.1052C5.55094 8.7652 6.10138 7.48005 7.08116 6.53249C8.06095 5.58494 9.38982 5.05261 10.7754 5.05261Z" fill="#000099"/>
<path d="M3.483 5.89474H0V16H3.483V5.89474Z" fill="#000099"/>
<path d="M1.7415 3.36842C2.7033 3.36842 3.483 2.61437 3.483 1.68421C3.483 0.754047 2.7033 0 1.7415 0C0.779695 0 0 0.754047 0 1.68421C0 2.61437 0.779695 3.36842 1.7415 3.36842Z" fill="#000099"/>
</svg>
