<svg width="16" height="16" viewBox="0 0 16 16" fill="none" xmlns="http://www.w3.org/2000/svg">
<path d="M10.7754 5.05273C12.161 5.05273 13.4899 5.58506 14.4697 6.53262C15.4495 7.48017 15.9999 8.76532 15.9999 10.1054V16.0001H12.5169V10.1054C12.5169 9.65869 12.3334 9.2303 12.0068 8.91445C11.6802 8.5986 11.2373 8.42116 10.7754 8.42116C10.3135 8.42116 9.87057 8.5986 9.54397 8.91445C9.21738 9.2303 9.0339 9.65869 9.0339 10.1054V16.0001H5.5509V10.1054C5.5509 8.76532 6.10134 7.48017 7.08112 6.53262C8.0609 5.58506 9.38978 5.05273 10.7754 5.05273Z" fill="white"/>
<path d="M3.483 5.89478H0V16H3.483V5.89478Z" fill="white"/>
<path d="M1.7415 3.36842C2.7033 3.36842 3.483 2.61437 3.483 1.68421C3.483 0.754047 2.7033 0 1.7415 0C0.779695 0 0 0.754047 0 1.68421C0 2.61437 0.779695 3.36842 1.7415 3.36842Z" fill="white"/>
</svg>
