<svg width="184" height="28" viewBox="0 0 184 28" fill="none" xmlns="http://www.w3.org/2000/svg">
<path d="M16 22.4021C16 23.0034 15.4 23.5046 14.7 23.3041L7.99999 21.5L1.7 27.7141C1.1 28.3154 0 27.9145 0 27.0125V12.6801C0 10.9763 0.999998 9.57313 2.6 8.97178L12 5.66431V16.1881C12 20.3976 16 18.7939 16 22.4021Z" fill="#FF9326"/>
<path d="M16 2.07182C16 2.49649 15.7 4.61982 13.2 5.46916L12 5.99999V1.01016C12 0.266992 12.7 -0.157675 13.3 0.0546585L15 0.691658C15.6 0.903992 16 1.43482 16 2.07182Z" fill="#FF9326"/>
<path d="M16 1.95582V22.402C16 18.7938 12 20.3974 12 16.1879V5.66419L13.2 5.26328C15.7 4.36125 16 2.45695 16 1.95582Z" fill="#000099"/>
<path d="M112.151 22.2999V4.59998H115.358V22.2999H112.151Z" fill="#000099"/>
<path d="M124.376 22.5C122.071 22.5 120.268 22 118.865 20.9L119.767 18.7C120.468 19.2 121.169 19.6 121.971 19.8C122.773 20 123.574 20.2 124.476 20.2C125.278 20.2 125.879 20.1 126.28 19.8C126.681 19.5 126.881 19.2 126.881 18.8C126.881 18.4 126.781 18.1 126.48 17.9C126.18 17.7 125.679 17.5 124.977 17.3L122.873 16.8C121.67 16.6 120.869 16.1 120.268 15.5C119.666 14.9 119.366 14.2 119.366 13.2C119.366 12.4 119.566 11.8 120.067 11.2C120.468 10.6 121.069 10.1 121.871 9.79999C122.673 9.49999 123.574 9.29999 124.576 9.29999C125.478 9.29999 126.38 9.39999 127.182 9.69999C127.983 9.99999 128.785 10.4 129.386 10.9L128.485 13C127.883 12.5 127.182 12.2 126.581 11.9C125.879 11.7 125.278 11.6 124.576 11.6C123.875 11.6 123.274 11.7 122.873 12C122.472 12.3 122.272 12.6 122.272 13.1C122.272 13.5 122.372 13.8 122.673 14C122.973 14.2 123.374 14.4 123.975 14.5L126.08 15C127.382 15.3 128.284 15.7 128.885 16.3C129.487 16.9 129.787 17.7 129.787 18.6C129.787 19.7 129.286 20.7 128.384 21.3C127.282 22.2 126.08 22.5 124.376 22.5Z" fill="#000099"/>
<path d="M144.719 14.5999V22.2999H141.613V14.6999C141.613 13.6999 141.412 12.9999 141.012 12.4999C140.611 11.9999 140.009 11.7999 139.208 11.7999C138.206 11.7999 137.504 12.0999 136.903 12.6999C136.302 13.2999 136.001 14.0999 136.001 15.0999V22.1999H132.895V3.99991H136.001V11.5999C136.402 10.9999 136.803 10.4999 137.404 10.1999C138.206 9.6999 139.108 9.4999 140.21 9.4999C143.216 9.3999 144.719 11.1999 144.719 14.5999Z" fill="#000099"/>
<path d="M148.426 3.99991H151.933V7.0999H148.426V3.99991ZM148.627 22.2999V9.7999H151.733V22.3999H148.627V22.2999Z" fill="#000099"/>
<path d="M164.66 3.99991V11.5999C164.359 11.0999 163.958 10.5999 163.357 10.2999C162.555 9.7999 161.654 9.4999 160.551 9.4999C159.449 9.4999 158.447 9.7999 157.645 10.2999C156.744 10.7999 156.142 11.5999 155.641 12.5999C155.14 13.5999 154.94 14.6999 154.94 15.9999C154.94 17.2999 155.14 18.4999 155.641 19.4999C156.142 20.4999 156.744 21.2999 157.645 21.7999C158.447 22.2999 159.449 22.5999 160.551 22.5999C161.654 22.5999 162.555 22.2999 163.357 21.7999C163.958 21.3999 164.359 20.9999 164.66 20.3999V22.3999H167.766V3.99991H164.66ZM163.858 19.0999C163.257 19.7999 162.455 20.1999 161.453 20.1999C160.351 20.1999 159.549 19.7999 158.948 19.0999C158.347 18.3999 158.046 17.2999 158.046 15.9999C158.046 14.6999 158.347 13.6999 158.948 12.9999C159.549 12.2999 160.351 11.8999 161.453 11.8999C162.455 11.8999 163.257 12.2999 163.858 12.9999C164.459 13.6999 164.66 14.6999 164.66 15.9999C164.76 17.2999 164.459 18.2999 163.858 19.0999Z" fill="#000099"/>
<path d="M180.893 9.79994V11.6999C180.592 11.0999 180.091 10.5999 179.59 10.2999C178.789 9.79994 177.887 9.49994 176.785 9.49994C175.682 9.49994 174.68 9.79994 173.879 10.2999C172.977 10.8999 172.375 11.5999 171.874 12.5999C171.373 13.5999 171.173 14.7999 171.173 16.0999C171.173 17.3999 171.373 18.5999 171.874 19.4999C172.375 20.4999 172.977 21.1999 173.879 21.6999C174.78 22.1999 175.682 22.4999 176.785 22.4999C177.887 22.4999 178.789 22.1999 179.59 21.6999C180.192 21.2999 180.592 20.8999 180.893 20.2999V22.2999H183.999V9.79994H180.893ZM180.091 19.0999C179.49 19.7999 178.688 20.1999 177.686 20.1999C176.584 20.1999 175.783 19.7999 175.181 19.0999C174.58 18.3999 174.279 17.3999 174.279 16.0999C174.279 14.7999 174.58 13.6999 175.181 12.9999C175.783 12.2999 176.584 11.8999 177.686 11.8999C178.688 11.8999 179.49 12.2999 180.091 12.9999C180.693 13.6999 180.993 14.6999 180.993 16.0999C180.893 17.2999 180.592 18.2999 180.091 19.0999Z" fill="#000099"/>
<path d="M45.0377 4.60001V22.3H42.1317V11.4L37.422 22.3H35.2175L30.4075 11.5L30.5077 22.3H27.6018V4.60001H30.2071L36.3197 18.5L42.4323 4.60001H45.0377Z" fill="#000099"/>
<path d="M61.8727 9.80001L55.9605 23.2C55.4595 24.3 54.9584 25.2 54.257 25.8C53.6557 26.5 52.8541 27 52.0524 27.3C51.2508 27.6 50.3489 27.9 49.4471 28L48.7456 25.6C49.5473 25.4 50.1485 25.2 50.7498 25C51.2508 24.8 51.7518 24.5 52.0524 24.1C52.3531 23.7 52.6537 23.3 52.9543 22.7L53.3551 21.8L48.0442 9.80001H51.351L54.9584 18.8L58.6661 9.80001H61.8727Z" fill="#000099"/>
<path d="M63.8444 22.2999V3.99994H66.9508V22.2999H63.8444Z" fill="#000099"/>
<path d="M81.7324 15.7C81.7324 14.4 81.532 13.3 81.031 12.3C80.5299 11.4 79.9287 10.6 79.127 10.1C78.3254 9.60003 77.3233 9.30003 76.1208 9.30003C74.9184 9.30003 73.8161 9.60003 72.9142 10.1C72.0124 10.7 71.3109 11.4 70.7097 12.4C70.2087 13.4 69.908 14.5 69.908 15.8C69.908 17.2 70.2087 18.3 70.7097 19.3C71.2107 20.3 72.0124 21 73.0144 21.5C74.0165 22 75.219 22.3 76.6219 22.3C77.5237 22.3 78.4256 22.2 79.3274 21.9C80.2293 21.6 80.9307 21.2 81.532 20.7L80.6301 18.5C80.0289 18.9 79.4277 19.3 78.8264 19.5C78.125 19.7 77.5237 19.8 76.8223 19.8C75.5196 19.8 74.6177 19.4 74.0165 18.7C73.4153 18.1 73.1146 17.1 73.1146 15.8H81.8326V15.7H81.7324ZM73.1146 14.5C73.2149 13.8 73.5155 13.2 73.8161 12.7C74.4173 12 75.1188 11.6 76.1208 11.6C77.0227 11.6 77.8244 11.9 78.3254 12.6C78.7262 13.1 78.9266 13.7 79.0268 14.5H73.1146Z" fill="#000099"/>
<path d="M96.8146 14.5999V22.2999H93.7082V14.6999C93.7082 13.6999 93.5078 12.9999 93.107 12.4999C92.7062 11.9999 92.1049 11.7999 91.3033 11.7999C90.3012 11.7999 89.4996 12.0999 88.9985 12.6999C88.3973 13.2999 88.0967 14.0999 88.0967 15.0999V22.1999H84.9903V13.1999C84.9903 12.5999 84.9903 11.9999 84.9903 11.3999C84.9903 10.7999 84.8901 10.1999 84.7899 9.59989H87.7961L87.9965 11.6999C88.3973 10.9999 88.8983 10.3999 89.5998 9.99989C90.3012 9.69989 91.2031 9.39989 92.3053 9.39989C95.3115 9.39989 96.8146 11.1999 96.8146 14.5999Z" fill="#000099"/>
<path d="M100.758 3.99994H104.265V7.09994H100.758V3.99994ZM100.858 22.2999V9.79994H103.965V22.3999H100.858V22.2999Z" fill="#000099"/>
</svg>
